<svg width="44" height="44" viewBox="0 0 44 44" fill="none" xmlns="http://www.w3.org/2000/svg">
<path d="M18.7227 16.0481H3.51563C2.40414 16.0481 1.5 16.9523 1.5 18.0638V21.3765C1.5 21.8946 1.70193 22.3629 2.02424 22.7203C1.70192 23.0777 1.5 23.5459 1.5 24.064V27.3768C1.5 27.8949 1.70193 28.3632 2.02424 28.7206C1.70192 29.078 1.5 29.5462 1.5 30.0643V33.3771C1.5 33.8952 1.70193 34.3634 2.02424 34.7209C1.70192 35.0783 1.5 35.5465 1.5 36.0646V39.3774C1.5 40.4889 2.40414 41.393 3.51563 41.393H18.7227C19.8342 41.393 20.7383 40.4889 20.7383 39.3774V36.0646C20.7383 35.5465 20.5364 35.0783 20.2141 34.7209C20.5364 34.3634 20.7383 33.8952 20.7383 33.3771V30.0643C20.7383 29.5462 20.5364 29.078 20.2141 28.7206C20.5364 28.3632 20.7383 27.8949 20.7383 27.3768V24.064C20.7383 23.5459 20.5364 23.0777 20.2141 22.7203C20.5364 22.3629 20.7383 21.8946 20.7383 21.3765V18.0638C20.7383 16.9523 19.8342 16.0481 18.7227 16.0481ZM2.84375 18.0638C2.84375 17.6934 3.14524 17.3919 3.51563 17.3919H18.7227C19.0931 17.3919 19.3946 17.6934 19.3946 18.0638V21.3765C19.3946 21.7469 19.0931 22.0484 18.7227 22.0484H3.51563C3.14524 22.0484 2.84375 21.7469 2.84375 21.3765V18.0638ZM19.3946 24.064V27.3768C19.3946 27.7472 19.0931 28.0487 18.7227 28.0487H3.51563C3.14524 28.0487 2.84375 27.7472 2.84375 27.3768V24.064C2.84375 23.6937 3.14524 23.3922 3.51563 23.3922H18.7227C19.0931 23.3922 19.3946 23.6937 19.3946 24.064ZM19.3946 30.0643V33.3771C19.3946 33.7475 19.0931 34.049 18.7227 34.049H3.51563C3.14524 34.049 2.84375 33.7475 2.84375 33.3771V30.0643C2.84375 29.6939 3.14524 29.3925 3.51563 29.3925H18.7227C19.0931 29.3925 19.3946 29.6939 19.3946 30.0643ZM19.3946 39.3774C19.3946 39.7478 19.0931 40.0493 18.7227 40.0493H3.51563C3.14524 40.0493 2.84375 39.7478 2.84375 39.3774V36.0646C2.84375 35.6942 3.14524 35.3928 3.51563 35.3928H18.7227C19.0931 35.3928 19.3946 35.6942 19.3946 36.0646V39.3774Z" fill="white"/>
<path d="M41.8125 30.0643C41.8125 28.9528 40.9084 28.0487 39.7969 28.0487H31.5615C31.1904 28.0487 30.8896 28.3495 30.8896 28.7206C30.8896 29.0916 31.1904 29.3924 31.5615 29.3924H39.7969C40.1673 29.3924 40.4687 29.6939 40.4687 30.0643V33.3771C40.4687 33.7475 40.1673 34.049 39.7969 34.049H24.5898C24.2194 34.049 23.9179 33.7475 23.9179 33.3771V30.0643C23.9179 29.6939 24.2194 29.3924 24.5898 29.3924H28.5679C28.9389 29.3924 29.2398 29.0916 29.2398 28.7206C29.2398 28.3495 28.9389 28.0487 28.5679 28.0487H24.5898C23.4783 28.0487 22.5742 28.9528 22.5742 30.0643V33.3771C22.5742 33.8952 22.7761 34.3634 23.0984 34.7208C22.7761 35.0783 22.5742 35.5465 22.5742 36.0646V39.3774C22.5742 40.4889 23.4783 41.393 24.5898 41.393H39.7969C40.9084 41.393 41.8125 40.4889 41.8125 39.3774V36.0646C41.8125 35.5465 41.6106 35.0783 41.2883 34.7208C41.6106 34.3634 41.8125 33.8952 41.8125 33.3771V30.0643ZM40.4687 39.3774C40.4687 39.7478 40.1673 40.0493 39.7969 40.0493H24.5898C24.2194 40.0493 23.9179 39.7478 23.9179 39.3774V36.0646C23.9179 35.6942 24.2194 35.3927 24.5898 35.3927H39.7969C40.1673 35.3927 40.4687 35.6942 40.4687 36.0646V39.3774Z" fill="white"/>
<path d="M3.71323 5.8732L15.2063 13.377C16.2397 14.0515 17.5553 14.1053 18.6425 13.5181C19.7277 12.9298 20.4018 11.798 20.4018 10.5638V8.49378L29.0558 13.4298L27.8332 16.5923C27.7492 16.8099 27.7837 17.0549 27.9244 17.2406C28.0645 17.4263 28.2936 17.5259 28.5233 17.5037L39.2957 16.4801C39.549 16.4559 39.7668 16.2909 39.8587 16.0537C39.9506 15.8161 39.9003 15.5475 39.729 15.3591L32.447 7.35539C32.2902 7.18283 32.0541 7.10344 31.8267 7.14707C31.5977 7.18972 31.4074 7.34784 31.3235 7.56502L30.5259 9.62723L21.3948 4.41954C20.3435 3.81919 19.091 3.82345 18.0428 4.43169C16.9959 5.03991 16.3706 6.1258 16.3706 7.33669V9.32279L12.2856 6.65563C11.9739 6.45288 11.5585 6.54014 11.3555 6.85083C11.1528 7.16183 11.24 7.57814 11.5507 7.78089L16.6751 11.1265C16.8824 11.2606 17.1455 11.2721 17.3624 11.1547C17.5792 11.0372 17.7144 10.8105 17.7144 10.5638V7.33669C17.7144 6.61036 18.0894 5.95849 18.7176 5.59369C19.3462 5.22822 20.0973 5.2256 20.7285 5.58647L30.538 11.1813C30.708 11.278 30.9123 11.2961 31.0961 11.2308C31.2805 11.1652 31.427 11.0225 31.4977 10.8401L32.1846 9.06363L37.8308 15.2696L29.4783 16.0632L30.5177 13.375C30.6378 13.0647 30.5128 12.7136 30.2241 12.549L20.063 6.7534C19.8544 6.63497 19.5991 6.63497 19.3924 6.75602C19.1854 6.87642 19.0581 7.09754 19.0581 7.33703V10.5638C19.0581 11.3043 18.6536 11.9837 18.0028 12.336C17.3506 12.6887 16.5606 12.6562 15.9409 12.2517L5.01039 5.11537L5.74492 3.99012L9.63281 6.52835C9.94447 6.73076 10.3598 6.6435 10.5629 6.33315C10.7657 6.02247 10.6784 5.60583 10.3677 5.40308L5.91716 2.49742C5.76724 2.40031 5.58582 2.36488 5.41161 2.40261C5.23708 2.43903 5.08453 2.54368 4.98709 2.69295L3.51803 4.94347C3.31528 5.25414 3.40254 5.67046 3.71323 5.8732Z" fill="white"/>
</svg>
