<svg width="44" height="44" viewBox="0 0 44 44" fill="none" xmlns="http://www.w3.org/2000/svg">
<path d="M41.3453 29.962C40.4803 28.4019 38.643 27.7 36.9506 28.2623C37.4866 27.0096 37.7609 25.5342 37.7609 23.8508C37.7609 17.3654 33.9261 11.5114 28.8585 9.32545L31.4778 6.70618C31.9732 6.21113 32.2462 5.55271 32.2462 4.85229C32.2462 4.15189 31.9732 3.49345 31.4778 2.9984C30.4883 2.00831 28.7607 2.00765 27.7701 2.9984L27.3351 3.43308C26.8207 2.42102 25.7722 1.73438 24.5702 1.73438C23.368 1.73438 22.3195 2.42102 21.8046 3.43308L21.3699 2.9984C20.3477 1.97616 18.6844 1.97616 17.6621 2.9984C16.6399 4.02066 16.6399 5.68393 17.6621 6.70618L20.2815 9.32553C15.214 11.5116 11.3791 17.3654 11.3791 23.8508C11.3791 24.2218 11.6798 24.5227 12.0508 24.5227C12.422 24.5227 12.7227 24.2218 12.7227 23.8508C12.7227 16.3434 18.2589 9.75817 24.5702 9.75817C30.8815 9.75817 36.4171 16.3434 36.4171 23.8508C36.4171 25.8752 35.9885 27.5365 35.1469 28.7922L26.6409 31.2916C26.3227 29.5397 25.0596 28.0982 23.3006 27.5691L16.4856 25.52C16.3517 25.4799 16.2087 25.4819 16.0758 25.5272L9.73343 27.6811V26.1633C9.73343 25.7923 9.4326 25.4914 9.06156 25.4914H2.17187C1.80083 25.4914 1.5 25.7923 1.5 26.1633V39.192C1.5 39.5631 1.80083 39.8639 2.17187 39.8639H9.06154C9.43259 39.8639 9.73342 39.5631 9.73342 39.192V38.1678C12.697 39.1222 20.9445 41.29 23.7631 42.0252C23.8188 42.0396 23.8752 42.0468 23.9324 42.0468C24.0261 42.0468 24.1194 42.0272 24.2059 41.9888L29.1073 39.8058C29.4459 39.6549 29.5986 39.2576 29.4471 38.9188C29.2969 38.5795 28.9012 38.4276 28.56 38.5782L23.8739 40.6654C18.9838 39.3879 11.4502 37.3634 9.73342 36.7686V29.1001L16.3046 26.8686L22.9133 28.8557C24.305 29.2743 25.2542 30.4887 25.3552 31.9183C24.828 32.4207 23.043 33.7805 19.6721 33.1101C19.3076 33.0356 18.9547 33.2748 18.8822 33.6382C18.8099 34.0024 19.0465 34.3561 19.4104 34.4282C20.1433 34.5736 20.8158 34.6356 21.4303 34.6356C24.3384 34.6356 25.9368 33.2521 26.4149 32.7585L37.4683 29.5109C38.522 29.2002 39.6354 29.6555 40.1721 30.6164C40.4957 31.1975 40.5579 31.8647 40.348 32.4956C40.1374 33.1265 39.6872 33.6228 39.0798 33.8935L31.1859 37.409C30.8472 37.5599 30.6944 37.9572 30.8459 38.2961C30.9962 38.6353 31.3918 38.7875 31.733 38.6366L39.6269 35.1211C40.5691 34.7012 41.2967 33.8994 41.6228 32.9204C41.9489 31.9418 41.8479 30.8635 41.3453 29.962ZM21.6828 8.82685L18.6122 5.75612C18.1138 5.25779 18.1138 4.44683 18.6122 3.94849C19.1108 3.45049 19.9212 3.45049 20.4198 3.94849L21.6665 5.19514C21.8545 5.3828 22.1355 5.44282 22.382 5.34735C22.6299 5.25221 22.7985 5.02028 22.8123 4.7552C22.8615 3.81498 23.6339 3.07814 24.5702 3.07814C25.5065 3.07814 26.278 3.81498 26.3272 4.7552C26.3417 5.02028 26.5103 5.25221 26.7577 5.34735C27.0056 5.44413 27.2859 5.38312 27.4734 5.19514L28.7201 3.94849C29.2024 3.46656 30.0441 3.46525 30.5278 3.94849C30.7693 4.18995 30.9025 4.51079 30.9025 4.8523C30.9025 5.19381 30.7693 5.51466 30.5278 5.75611L27.4571 8.82675C26.521 8.56065 25.5547 8.41442 24.5702 8.41442C23.5856 8.41442 22.6189 8.5607 21.6828 8.82685ZM8.38967 38.5202H2.84375V26.8352H8.38967V38.5202Z" fill="white"/>
<path d="M6.26113 28.153H4.97217C4.60112 28.153 4.30029 28.4538 4.30029 28.8249C4.30029 29.1959 4.60112 29.4967 4.97217 29.4967H6.26113C6.63218 29.4967 6.93301 29.1959 6.93301 28.8249C6.93301 28.4538 6.63218 28.153 6.26113 28.153Z" fill="white"/>
<path d="M24.5703 22.0969C23.8295 22.0969 23.2265 21.4943 23.2265 20.7532C23.2265 20.3822 22.926 20.0813 22.5546 20.0813C22.1836 20.0813 21.8828 20.3822 21.8828 20.7532C21.8828 22.0018 22.7424 23.0449 23.8984 23.3453V24.1323C23.8984 24.5033 24.1989 24.8041 24.5703 24.8041C24.9416 24.8041 25.2421 24.5033 25.2421 24.1323V23.3453C26.3981 23.0449 27.2578 22.0018 27.2578 20.7532C27.2578 19.2713 26.0525 18.0657 24.5703 18.0657C23.8295 18.0657 23.2265 17.463 23.2265 16.7219C23.2265 15.9809 23.8295 15.3782 24.5703 15.3782C25.311 15.3782 25.914 15.9809 25.914 16.7219C25.914 17.093 26.2145 17.3938 26.5859 17.3938C26.9573 17.3938 27.2578 17.093 27.2578 16.7219C27.2578 15.4734 26.3981 14.4303 25.2421 14.1298V13.3426C25.2421 12.9715 24.9416 12.6707 24.5703 12.6707C24.1989 12.6707 23.8984 12.9715 23.8984 13.3426V14.1298C22.7424 14.4303 21.8828 15.4734 21.8828 16.7219C21.8828 18.2038 23.0881 19.4094 24.5703 19.4094C25.311 19.4094 25.914 20.0121 25.914 20.7532C25.914 21.4943 25.311 22.0969 24.5703 22.0969Z" fill="white"/>
</svg>
