<svg width="185" height="125" viewBox="0 0 185 125" fill="none" xmlns="http://www.w3.org/2000/svg">
<path d="M78.5055 91.2391H75.5046C75.3165 90.6679 75.2051 89.5241 75.1493 87.7951C73.9275 89.7173 71.573 91.6171 66.963 91.6171C59.2657 91.6171 55.1377 85.751 55.1377 78.128C55.1377 70.1017 59.5694 64.0635 67.6819 64.0635C74.0013 64.0635 77.9273 67.5313 78.6671 72.2787H74.7105C73.8732 69.5123 71.8698 67.3241 67.6053 67.3241C61.5505 67.3241 59.2657 72.2185 59.2657 77.9418C59.2657 83.2898 61.6104 88.3215 67.4938 88.3215C73.2685 88.3215 74.6436 84.4322 74.6436 80.312V80.039H67.452V76.6734H78.5069V91.2391H78.5055Z" fill="white"/>
<path d="M81.1624 91.2389V62.9517H84.9309V91.2389H81.1624Z" fill="white"/>
<path d="M104.711 81.3816C104.711 87.0936 101.425 91.7011 95.4089 91.7011C89.7205 91.7011 86.3044 87.3498 86.3044 81.4544C86.3044 75.6051 89.6857 71.1377 95.6346 71.1377C101.124 71.1391 104.711 75.2215 104.711 81.3816ZM90.1705 81.4208C90.1705 85.625 92.2087 88.5916 95.544 88.5916C98.9392 88.5916 100.845 85.7552 100.845 81.4376C100.845 77.0793 98.9434 74.2485 95.4674 74.2485C92.0346 74.2499 90.1705 77.0023 90.1705 81.4208Z" fill="white"/>
<path d="M106.072 62.9517H109.841V74.2638C110.71 72.6677 112.469 71.1389 115.951 71.1389C120.935 71.1389 123.943 75.2662 123.943 81.0314C123.943 86.9324 120.984 91.7023 115.436 91.7023C112.352 91.7023 110.788 90.6005 109.808 88.7889C109.808 89.7255 109.734 90.7181 109.661 91.2403H106.033C106.072 89.0591 106.072 86.861 106.072 84.6798V62.9517ZM120.075 81.1042C120.075 77.054 118.288 74.3015 114.992 74.3015C111.049 74.3015 109.656 76.949 109.656 81.4934C109.656 85.4316 110.891 88.5565 114.848 88.5565C118.167 88.5565 120.075 85.685 120.075 81.1042Z" fill="white"/>
<path d="M140.14 86.8035C140.14 88.6054 140.293 90.6928 140.409 91.2388H136.805C136.651 90.8104 136.536 89.857 136.494 88.7944C135.807 90.0642 134.293 91.7008 130.566 91.7008C125.939 91.7008 123.968 88.667 123.968 85.6695C123.968 81.2693 127.423 79.2533 133.214 79.2533C134.495 79.2533 135.726 79.2533 136.442 79.2533V77.6713C136.442 76.0053 135.902 74.0354 132.468 74.0354C129.393 74.0354 128.852 75.5363 128.518 77.0483H124.889C125.153 74.1908 126.913 71.122 132.593 71.1402C137.457 71.157 140.14 73.1324 140.14 77.6377V86.8035ZM136.462 81.7887C135.872 81.7887 134.472 81.7887 133.485 81.7887C129.712 81.7887 127.796 82.8541 127.796 85.4525C127.796 87.3747 129.088 88.8056 131.407 88.8056C135.867 88.8056 136.46 85.7717 136.46 82.3949V81.7887H136.462Z" fill="white"/>
<path d="M143.34 64.4482H160.749V67.8139H147.227V76.1033H159.901V79.469H147.227V91.2375H143.34V64.4482Z" fill="#77C043"/>
<path d="M161.652 62.9517H165.42V67.3071H161.652V62.9517ZM161.652 71.6023H165.42V91.2389H161.652V71.6023Z" fill="#77C043"/>
<path d="M168.155 76.5502C168.155 74.8534 168.155 73.1104 168.116 71.6026H171.776C171.871 72.1668 171.927 74.096 171.922 74.6882C172.68 73.0894 174.271 71.1392 177.98 71.1392C181.693 71.1392 184.499 73.4716 184.499 78.6362V91.2391H180.73V79.1024C180.73 76.2828 179.659 74.362 176.79 74.362C173.374 74.362 171.922 76.8834 171.922 80.7376V91.2391H168.154V76.5502H168.155Z" fill="#77C043"/>
<path d="M82.3995 101.102C82.3995 99.5397 82.4162 97.9507 82.4525 97.0658H82.4079C82.0498 98.4295 80.6943 102.041 79.7344 104.688H78.7382C78.0124 102.534 76.6108 98.4855 76.2333 97.049H76.1971C76.2612 98.0207 76.2904 99.8897 76.2904 101.332V104.688H75.2441V96.2734H76.9006C77.8508 98.8845 79.0141 102.253 79.3011 103.325H79.3206C79.517 102.516 80.8907 98.8173 81.8743 96.2734H83.4848V104.688H82.4009V101.102H82.3995Z" fill="white"/>
<path d="M88.6743 96.2734V104.688H87.564V96.2734H88.6743Z" fill="white"/>
<path d="M99.3099 102.302C98.9379 103.73 97.8791 104.792 95.9788 104.792C93.4753 104.792 92.2117 102.883 92.2117 100.505C92.2117 98.2193 93.4767 96.1528 96.0206 96.1528C97.9948 96.1528 99.0661 97.284 99.3141 98.6911H98.2037C97.9042 97.7754 97.301 97.0838 95.976 97.0838C94.1287 97.0838 93.375 98.7709 93.375 100.473C93.375 102.124 94.0925 103.864 96.0248 103.864C97.3163 103.864 97.8819 103.121 98.1968 102.303H99.3099V102.302Z" fill="white"/>
<path d="M103.852 100.982V104.688H102.751V96.2734H106.024C107.744 96.2734 108.661 97.2114 108.661 98.5247C108.661 99.6181 108.035 100.28 107.233 100.504C107.915 100.689 108.51 101.201 108.51 102.662V103.023C108.51 103.602 108.484 104.336 108.623 104.689H107.544C107.392 104.326 107.401 103.67 107.401 102.88V102.701C107.401 101.502 107.064 100.983 105.562 100.983H103.852V100.982ZM103.852 100.042H105.672C106.953 100.042 107.514 99.5593 107.514 98.6129C107.514 97.7183 106.935 97.2114 105.796 97.2114H103.85V100.042H103.852Z" fill="white"/>
<path d="M119.607 100.433C119.607 102.747 118.316 104.808 115.678 104.808C113.214 104.808 111.839 102.894 111.839 100.48C111.839 98.0737 113.243 96.1528 115.776 96.1528C118.133 96.1514 119.607 97.9308 119.607 100.433ZM113.001 100.444C113.001 102.262 113.927 103.857 115.727 103.857C117.671 103.857 118.445 102.247 118.445 100.449C118.445 98.6365 117.568 97.1048 115.73 97.1048C113.833 97.1034 113.001 98.6491 113.001 100.444Z" fill="white"/>
<path d="M123.149 96.2734H128.528V97.2296H124.241V99.9597H128.259V100.916H124.241V104.688H123.147V96.2734H123.149Z" fill="white"/>
<path d="M132.862 96.2734V104.688H131.751V96.2734H132.862Z" fill="white"/>
<path d="M136.938 104.688V96.2734H138.408C139.609 98.2405 142.221 102.425 142.691 103.341H142.707C142.627 102.261 142.635 100.934 142.635 99.5593V96.2734H143.684V104.688H142.303C141.197 102.862 138.472 98.3595 137.948 97.4145H137.932C137.991 98.3735 137.993 99.7987 137.993 101.318V104.688H136.938Z" fill="white"/>
<path d="M148.864 102.163L147.964 104.688H146.859L149.841 96.2734H151.207L154.317 104.688H153.134L152.205 102.163H148.864ZM151.921 101.207C151.122 98.9951 150.683 97.8205 150.502 97.1792H150.49C150.285 97.8933 149.795 99.3157 149.152 101.207H151.921Z" fill="white"/>
<path d="M157.443 104.688V96.2734H158.913C160.114 98.2405 162.726 102.425 163.196 103.341H163.212C163.131 102.261 163.14 100.934 163.14 99.5593V96.2734H164.189V104.688H162.808C161.702 102.862 158.977 98.3595 158.453 97.4145H158.436C158.496 98.3735 158.498 99.7987 158.498 101.318V104.688H157.443Z" fill="white"/>
<path d="M174.833 102.302C174.461 103.73 173.402 104.792 171.502 104.792C168.998 104.792 167.735 102.883 167.735 100.505C167.735 98.2193 169 96.1528 171.544 96.1528C173.518 96.1528 174.589 97.284 174.837 98.6911H173.727C173.427 97.7754 172.824 97.0838 171.499 97.0838C169.652 97.0838 168.898 98.7709 168.898 100.473C168.898 102.124 169.615 103.864 171.548 103.864C172.839 103.864 173.405 103.121 173.72 102.303H174.833V102.302Z" fill="white"/>
<path d="M183.526 100.753H179.362V103.731H183.936L183.792 104.688H178.274V96.2734H183.727V97.2296H179.363V99.7987H183.528V100.753H183.526Z" fill="white"/>
<path d="M58.2931 43.7562C61.2931 43.7562 63.7251 41.3122 63.7251 38.2975C63.7251 35.2828 61.2931 32.8389 58.2931 32.8389C55.2931 32.8389 52.8611 35.2828 52.8611 38.2975C52.8611 41.3122 55.2931 43.7562 58.2931 43.7562Z" fill="white"/>
<path d="M47.3608 50.283C49.3267 50.283 50.9204 48.6815 50.9204 46.7059C50.9204 44.7304 49.3267 43.1289 47.3608 43.1289C45.3949 43.1289 43.8013 44.7304 43.8013 46.7059C43.8013 48.6815 45.3949 50.283 47.3608 50.283Z" fill="white"/>
<path d="M39.7443 59.5202C42.0465 59.5202 43.9127 57.6448 43.9127 55.3314C43.9127 53.018 42.0465 51.1426 39.7443 51.1426C37.4422 51.1426 35.5759 53.018 35.5759 55.3314C35.5759 57.6448 37.4422 59.5202 39.7443 59.5202Z" fill="white"/>
<path d="M34.7179 70.0608C37.2516 70.0608 39.3056 67.9967 39.3056 65.4506C39.3056 62.9044 37.2516 60.8403 34.7179 60.8403C32.1841 60.8403 30.1301 62.9044 30.1301 65.4506C30.1301 67.9967 32.1841 70.0608 34.7179 70.0608Z" fill="white"/>
<path d="M32.5876 81.7763C35.2567 81.7763 37.4205 79.6019 37.4205 76.9196C37.4205 74.2374 35.2567 72.063 32.5876 72.063C29.9184 72.063 27.7546 74.2374 27.7546 76.9196C27.7546 79.6019 29.9184 81.7763 32.5876 81.7763Z" fill="white"/>
<path d="M33.4151 92.7495C35.8811 92.7495 37.8802 90.7405 37.8802 88.2624C37.8802 85.7843 35.8811 83.7754 33.4151 83.7754C30.9491 83.7754 28.95 85.7843 28.95 88.2624C28.95 90.7405 30.9491 92.7495 33.4151 92.7495Z" fill="white"/>
<path d="M36.6878 103.601C39.023 103.601 40.9161 101.699 40.9161 99.3521C40.9161 97.0054 39.023 95.103 36.6878 95.103C34.3525 95.103 32.4595 97.0054 32.4595 99.3521C32.4595 101.699 34.3525 103.601 36.6878 103.601Z" fill="white"/>
<path d="M43.4015 112.014C45.3112 112.014 46.8593 110.458 46.8593 108.539C46.8593 106.62 45.3112 105.064 43.4015 105.064C41.4917 105.064 39.9436 106.62 39.9436 108.539C39.9436 110.458 41.4917 112.014 43.4015 112.014Z" fill="white"/>
<path d="M52.1115 119.157C53.8366 119.157 55.2351 117.751 55.2351 116.018C55.2351 114.284 53.8366 112.879 52.1115 112.879C50.3865 112.879 48.988 114.284 48.988 116.018C48.988 117.751 50.3865 119.157 52.1115 119.157Z" fill="white"/>
<path d="M62.1453 123.943C63.608 123.943 64.7937 122.751 64.7937 121.282C64.7937 119.812 63.608 118.62 62.1453 118.62C60.6826 118.62 59.4968 119.812 59.4968 121.282C59.4968 122.751 60.6826 123.943 62.1453 123.943Z" fill="white"/>
<path d="M73.7671 125C74.8705 125 75.7649 124.101 75.7649 122.992C75.7649 121.884 74.8705 120.985 73.7671 120.985C72.6637 120.985 71.7693 121.884 71.7693 122.992C71.7693 124.101 72.6637 125 73.7671 125Z" fill="white"/>
<path d="M65.4389 12.0528C68.7505 12.0528 71.4351 9.35499 71.4351 6.02711C71.4351 2.69924 68.7505 0.00146484 65.4389 0.00146484C62.1272 0.00146484 59.4426 2.69924 59.4426 6.02711C59.4426 9.35499 62.1272 12.0528 65.4389 12.0528Z" fill="white"/>
<path d="M49.4507 15.0208C53.0101 15.0208 55.8956 12.1212 55.8956 8.54432C55.8956 4.96748 53.0101 2.06787 49.4507 2.06787C45.8913 2.06787 43.0059 4.96748 43.0059 8.54432C43.0059 12.1212 45.8913 15.0208 49.4507 15.0208Z" fill="white"/>
<path d="M34.6274 22.0178C38.3291 22.0178 41.33 19.0022 41.33 15.2823C41.33 11.5624 38.3291 8.54688 34.6274 8.54688C30.9257 8.54688 27.9248 11.5624 27.9248 15.2823C27.9248 19.0022 30.9257 22.0178 34.6274 22.0178Z" fill="white"/>
<path d="M21.9618 31.4387C25.4781 31.4387 28.3286 28.5742 28.3286 25.0406C28.3286 21.5071 25.4781 18.6426 21.9618 18.6426C18.4455 18.6426 15.595 21.5071 15.595 25.0406C15.595 28.5742 18.4455 31.4387 21.9618 31.4387Z" fill="white"/>
<path d="M11.8893 44.3384C15.2094 44.3384 17.9008 41.6338 17.9008 38.2974C17.9008 34.961 15.2094 32.2563 11.8893 32.2563C8.56916 32.2563 5.87769 34.961 5.87769 38.2974C5.87769 41.6338 8.56916 44.3384 11.8893 44.3384Z" fill="white"/>
<path d="M6.59648 58.5651C9.42953 58.5651 11.7262 56.2572 11.7262 53.4102C11.7262 50.5633 9.42953 48.2554 6.59648 48.2554C3.76344 48.2554 1.4668 50.5633 1.4668 53.4102C1.4668 56.2572 3.76344 58.5651 6.59648 58.5651Z" fill="white"/>
<path d="M5.1728 74.3099C7.7527 74.3099 9.84413 72.2082 9.84413 69.6156C9.84413 67.0231 7.7527 64.9214 5.1728 64.9214C2.59289 64.9214 0.501465 67.0231 0.501465 69.6156C0.501465 72.2082 2.59289 74.3099 5.1728 74.3099Z" fill="white"/>
<path d="M6.98237 89.6988C9.11139 89.6988 10.8373 87.9645 10.8373 85.825C10.8373 83.6856 9.11139 81.9512 6.98237 81.9512C4.85335 81.9512 3.12744 83.6856 3.12744 85.825C3.12744 87.9645 4.85335 89.6988 6.98237 89.6988Z" fill="white"/>
<path d="M14.5111 103.767C16.1061 103.767 17.3992 102.468 17.3992 100.865C17.3992 99.2623 16.1061 97.9629 14.5111 97.9629C12.9161 97.9629 11.623 99.2623 11.623 100.865C11.623 102.468 12.9161 103.767 14.5111 103.767Z" fill="white"/>
<path d="M58.8895 28.4285C61.8895 28.4285 64.3215 25.9846 64.3215 22.9699C64.3215 19.9551 61.8895 17.5112 58.8895 17.5112C55.8895 17.5112 53.4575 19.9551 53.4575 22.9699C53.4575 25.9846 55.8895 28.4285 58.8895 28.4285Z" fill="#77C043"/>
<path d="M45.4844 36.553C48.6845 36.553 51.2787 33.9461 51.2787 30.7304C51.2787 27.5146 48.6845 24.9077 45.4844 24.9077C42.2844 24.9077 39.6902 27.5146 39.6902 30.7304C39.6902 33.9461 42.2844 36.553 45.4844 36.553Z" fill="#77C043"/>
<path d="M33.8946 45.6696C37.2285 45.6696 39.9312 42.9537 39.9312 39.6034C39.9312 36.2531 37.2285 33.5371 33.8946 33.5371C30.5606 33.5371 27.8579 36.2531 27.8579 39.6034C27.8579 42.9537 30.5606 45.6696 33.8946 45.6696Z" fill="#77C043"/>
<path d="M25.0507 56.4499C28.1553 56.4499 30.6722 53.9208 30.6722 50.8009C30.6722 47.681 28.1553 45.1519 25.0507 45.1519C21.946 45.1519 19.4292 47.681 19.4292 50.8009C19.4292 53.9208 21.946 56.4499 25.0507 56.4499Z" fill="#77C043"/>
<path d="M19.1184 69.6531C22.0984 69.6531 24.5142 67.2255 24.5142 64.2308C24.5142 61.2362 22.0984 58.8086 19.1184 58.8086C16.1384 58.8086 13.7227 61.2362 13.7227 64.2308C13.7227 67.2255 16.1384 69.6531 19.1184 69.6531Z" fill="#77C043"/>
<path d="M17.8298 82.9955C20.2789 82.9955 22.2642 81.0004 22.2642 78.5392C22.2642 76.0781 20.2789 74.083 17.8298 74.083C15.3807 74.083 13.3953 76.0781 13.3953 78.5392C13.3953 81.0004 15.3807 82.9955 17.8298 82.9955Z" fill="#77C043"/>
<path d="M19.7873 97.1791C22.0478 97.1791 23.8804 95.3375 23.8804 93.0659C23.8804 90.7942 22.0478 88.9526 19.7873 88.9526C17.5267 88.9526 15.6941 90.7942 15.6941 93.0659C15.6941 95.3375 17.5267 97.1791 19.7873 97.1791Z" fill="#77C043"/>
<path d="M25.0214 109.899C26.9196 109.899 28.4584 108.353 28.4584 106.446C28.4584 104.538 26.9196 102.992 25.0214 102.992C23.1233 102.992 21.5845 104.538 21.5845 106.446C21.5845 108.353 23.1233 109.899 25.0214 109.899Z" fill="#77C043"/>
<path d="M34.3989 120.231C35.7724 120.231 36.8858 119.113 36.8858 117.732C36.8858 116.352 35.7724 115.233 34.3989 115.233C33.0255 115.233 31.9121 116.352 31.9121 117.732C31.9121 119.113 33.0255 120.231 34.3989 120.231Z" fill="#77C043"/>
</svg>
