<svg width="17" height="16" viewBox="0 0 17 16" fill="none" xmlns="http://www.w3.org/2000/svg">
<g clip-path="url(#clip0_1_272)">
<path d="M1.98339 7.33377C1.67274 7.33464 1.36868 7.42344 1.10639 7.58991C0.844101 7.75638 0.634303 7.99371 0.501267 8.27444C0.368232 8.55517 0.317396 8.86783 0.354642 9.17624C0.391887 9.48466 0.515691 9.77623 0.711732 10.0172L4.89084 15.1366C5.03986 15.3216 5.23085 15.4684 5.44799 15.5648C5.66512 15.6612 5.90211 15.7044 6.13929 15.6908C6.64653 15.6635 7.10451 15.3922 7.39648 14.946L16.0776 0.965158C16.079 0.962839 16.0805 0.96052 16.082 0.958235C16.1635 0.83317 16.1371 0.585323 15.9689 0.429623C15.9228 0.386866 15.8683 0.354017 15.8089 0.333098C15.7496 0.31218 15.6866 0.303635 15.6238 0.30799C15.561 0.312345 15.4998 0.329508 15.4439 0.358422C15.3879 0.387336 15.3386 0.427388 15.2987 0.476112C15.2956 0.479943 15.2924 0.483716 15.2891 0.487431L6.53407 10.3793C6.50076 10.4169 6.46029 10.4476 6.41504 10.4694C6.36978 10.4913 6.32062 10.504 6.27043 10.5067C6.22024 10.5094 6.17001 10.5021 6.12265 10.4852C6.0753 10.4684 6.03177 10.4423 5.9946 10.4084L3.08897 7.76431C2.7872 7.48768 2.39277 7.33408 1.98339 7.33377Z" fill="#374EA0"/>
</g>
<defs>
<clipPath id="clip0_1_272">
<rect width="16" height="16" fill="white" transform="translate(0.234375)"/>
</clipPath>
</defs>
</svg>
