<svg width="40" height="40" viewBox="0 0 40 40" fill="none" xmlns="http://www.w3.org/2000/svg">
<g clip-path="url(#clip0_24_16)">
<path d="M25.4311 0C26.5882 0.362888 27.1594 1.20233 27.3776 2.3327C27.4134 2.51936 27.4292 2.71436 27.7211 2.71019C28.9563 2.69663 29.8668 3.80928 29.9554 5.05436C30.0334 6.14406 29.7646 7.14722 29.1997 8.07112C29.0206 8.3631 29.0353 8.48719 29.3589 8.64986C30.9871 9.46949 32.3477 10.6228 33.5227 11.9993C33.6935 12.1995 33.7915 12.4174 33.7051 12.6812C33.547 13.1651 32.9895 13.2673 32.6027 12.8606C32.08 12.3121 31.5731 11.749 30.9903 11.2579C29.5739 10.0639 27.9941 9.19419 26.1414 8.87927C24.2307 8.55393 22.4338 8.91681 20.7265 9.79275C20.5347 9.89181 20.4747 10.0138 20.5147 10.2328C21.479 15.4352 18.2594 20.2153 13.5602 21.6585C13.2313 21.7597 12.9869 22.3874 13.1639 22.694C13.2735 22.8838 13.3989 22.7097 13.4938 22.6648C14.984 21.9505 16.472 21.231 17.9569 20.5052C18.6873 20.1476 19.4545 20.0057 20.2533 20.159C21.7204 20.4406 22.8554 21.5845 23.0788 22.9651C23.3233 24.472 22.6731 25.8265 21.3157 26.6295C20.3682 27.1905 19.4187 27.7484 18.4733 28.3115C18.3659 28.3761 18.2267 28.4085 18.153 28.5993C18.7916 28.7119 19.4176 28.8235 20.0436 28.9319C21.4917 29.1832 22.9376 29.4408 24.3877 29.6796C25.3267 29.835 26.2099 29.7005 27.0277 29.1697C29.6339 27.4814 32.2518 25.8099 34.8633 24.1289C35.229 23.8932 35.5999 23.6586 36.031 23.5793C36.3219 23.5251 36.3714 23.3791 36.3788 23.1236C36.442 20.9119 35.9361 18.8191 35.0519 16.8023C34.7315 16.0724 34.3332 15.3862 33.9454 14.6907C33.7694 14.3747 33.8695 14.0473 34.1466 13.869C34.4291 13.6875 34.7969 13.7605 35.0203 14.0442C35.0604 14.0953 35.0951 14.1516 35.1289 14.2068C36.2649 16.0599 37.0532 18.0464 37.44 20.182C37.616 21.1559 37.713 22.1393 37.6677 23.1299C37.654 23.4313 37.7372 23.5887 38.0355 23.7159C40.2929 24.6763 40.6912 27.5252 38.7795 29.0508C35.464 31.6953 32.1295 34.3179 28.8172 36.9666C27.5536 37.977 26.1477 38.246 24.5658 38.0156C22.711 37.7445 20.8435 37.5557 18.9813 37.3305C17.1455 37.1084 15.3085 36.8852 13.4727 36.6621C12.9774 36.6016 12.4831 36.538 11.9888 36.4796C11.7369 36.4504 11.4935 36.4775 11.2543 36.5724C10.8886 36.7173 10.5197 36.855 10.1477 36.9832C9.81467 37.0979 9.45108 37.1438 9.62708 37.6736C9.6998 37.8925 9.50167 38.1074 9.28352 38.2408C7.78595 39.1543 6.16298 39.7268 4.42513 39.976C3.84023 40.0594 3.65158 39.9343 3.425 39.3931C2.14664 36.3398 1.04007 33.2261 0.0863099 30.0592C-0.0991729 29.445 -0.00853921 29.2437 0.55634 28.9111C1.95168 28.0894 3.45872 27.5794 5.05535 27.3167C5.73616 27.2051 5.92902 27.2979 6.1946 27.8527C6.25151 27.9715 6.26204 28.1697 6.46755 28.1186C6.67411 28.0675 6.92915 28.0664 6.9829 27.7765C7.01662 27.5982 7.0514 27.4189 7.09988 27.2447C7.40972 26.1289 8.08631 25.3051 9.12965 24.7838C9.93903 24.3792 10.7516 23.9808 11.5715 23.596C11.8371 23.4719 11.9625 23.3218 11.8866 23.0225C11.8318 22.8066 11.8624 22.5824 11.8992 22.3635C11.9372 22.1372 11.8792 22.0287 11.6063 22.0558C6.09975 22.6043 1.2793 18.963 0.43409 13.5186C-0.394259 8.1827 3.20369 3.18152 8.51735 2.17315C13.4506 1.23778 18.0086 3.71855 19.9741 8.32556C20.0352 8.46842 20.0447 8.68636 20.3124 8.5727C20.5895 8.45382 20.4631 8.29427 20.3714 8.13473C19.8518 7.22542 19.503 6.26607 19.5725 5.20243C19.6295 4.33588 19.9319 3.58091 20.6812 3.05847C20.9215 2.89059 21.1966 2.72374 21.4748 2.74251C22.0407 2.78214 22.1535 2.47765 22.2526 2.02091C22.4781 0.984384 23.1157 0.290936 24.1664 0C24.5901 0 25.0106 0 25.4311 0ZM25.1202 31.03C24.8852 31.0092 24.648 31.0039 24.4162 30.9643C22.6435 30.6682 20.8709 30.3689 19.1004 30.0644C18.1045 29.8934 17.1117 29.7109 16.1169 29.5347C15.8239 29.4825 15.6447 29.3053 15.5836 29.0279C15.5204 28.739 15.6648 28.5263 15.8987 28.3678C15.9746 28.3167 16.0547 28.2719 16.1337 28.2249C17.6661 27.3135 19.2037 26.4115 20.7276 25.4887C21.5823 24.9715 21.9996 24.0549 21.8141 23.206C21.479 21.6731 19.9973 20.9515 18.5661 21.6325C17.0622 22.3489 15.5636 23.0746 14.0639 23.7983C12.6464 24.4824 11.229 25.1665 9.81467 25.8557C8.89464 26.3031 8.3424 27.0236 8.26336 28.0445C8.19591 28.9205 8.18327 28.9716 7.34965 29.1999C6.72154 29.372 6.80901 29.3647 7.00714 29.8652C7.08196 30.054 7.11042 30.2458 7.03875 30.4356C6.94707 30.6765 6.7521 30.8162 6.49917 30.8329C6.19038 30.8527 5.96907 30.6869 5.85209 30.4116C5.64342 29.9205 5.43686 29.4273 5.25981 28.9246C5.16601 28.6587 5.03322 28.6055 4.76237 28.6587C3.68426 28.8694 2.66726 29.2427 1.68715 29.7297C1.43001 29.8579 1.40577 30.0091 1.48375 30.2615C2.32791 32.9988 3.29221 35.6923 4.37138 38.3482C4.47888 38.6121 4.61062 38.6715 4.87198 38.6183C5.94799 38.4014 6.97131 38.0458 7.94298 37.5401C8.1664 37.4243 8.22964 37.2919 8.14954 37.0396C7.77225 35.8351 7.39075 34.6328 6.96709 33.444C6.86697 33.1625 6.75948 32.882 6.67622 32.5942C6.57715 32.2521 6.72575 31.9623 7.04297 31.8288C7.34543 31.7016 7.67319 31.8194 7.84076 32.1312C7.91453 32.2678 7.96195 32.419 8.01148 32.5671C8.35821 33.59 8.71126 34.6109 9.04007 35.6391C9.1307 35.9217 9.25085 35.978 9.52064 35.8696C10.0202 35.6693 10.5345 35.5088 11.0319 35.3054C11.3502 35.1761 11.6674 35.1594 11.9973 35.2001C14.0281 35.4504 16.0579 35.7058 18.0887 35.953C20.4452 36.2397 22.8027 36.5223 25.1602 36.8018C26.1688 36.9207 27.0888 36.7132 27.895 36.0677C29.1407 35.0687 30.3969 34.0833 31.6479 33.0895C33.7599 31.4127 35.874 29.739 37.9817 28.057C38.9639 27.2729 38.9513 25.8933 37.9722 25.1174C37.3578 24.6305 36.4778 24.6148 35.7264 25.0955C33.0443 26.812 30.3664 28.5336 27.6853 30.2521C26.9065 30.7505 26.0571 31.0258 25.1202 31.03ZM10.5102 20.8337C15.1705 20.9182 19.3902 17.1089 19.4071 12.0806C19.4229 7.28486 15.5815 3.24096 10.5039 3.23888C5.33041 3.23679 1.606 7.45588 1.60706 12.0493C1.60811 16.9087 5.69822 20.9213 10.5102 20.8337ZM20.8572 5.46834C20.8509 6.26711 21.1618 6.95951 21.5602 7.63002C21.7119 7.8855 21.87 7.94911 22.1672 7.86569C23.2991 7.55077 24.4467 7.39957 25.6302 7.53513C26.2457 7.60604 26.8485 7.71866 27.444 7.87716C27.6221 7.92513 27.7696 7.95433 27.8908 7.7708C28.3703 7.05128 28.7034 6.27545 28.7107 5.40682C28.7202 4.2681 28.1406 3.8343 27.0266 4.09708C26.5545 4.20866 26.2078 3.94067 26.2014 3.43179C26.1951 2.95941 26.1393 2.4985 25.9654 2.05741C25.7367 1.4797 25.3626 1.22318 24.7671 1.22318C24.1928 1.22422 23.8049 1.50682 23.571 2.06888C23.4076 2.462 23.3844 2.87807 23.3486 3.29101C23.2833 4.05433 23.0662 4.217 22.3168 4.03139C21.5718 3.84682 21.0438 4.17425 20.8983 4.92297C20.8635 5.10232 20.8699 5.2869 20.8572 5.46834Z" fill="white"/>
<path d="M27.9309 21.3499C27.9309 20.7523 27.9214 20.1538 27.9351 19.5563C27.9414 19.3018 27.8581 19.1496 27.6157 19.0443C27.328 18.9191 27.0572 18.7565 26.7863 18.598C25.8147 18.0276 25.4479 17.1506 25.5849 16.0817C25.7219 15.0118 26.2921 14.187 27.328 13.8137C27.8149 13.6385 28.0067 13.431 27.9372 12.9388C27.8961 12.6468 28.012 12.3997 28.2944 12.2599C28.716 12.0514 29.2145 12.3215 29.1934 12.8408C29.1692 13.4425 29.4284 13.6541 29.9659 13.7615C30.3506 13.8387 30.6941 14.0567 30.9998 14.3101C31.3149 14.5707 31.3686 14.9128 31.1505 15.2058C30.9344 15.4957 30.5845 15.5489 30.2441 15.3247C30.0028 15.1651 29.7614 15.0118 29.4822 14.9253C29.3125 14.8732 29.2303 14.9232 29.2313 15.1005C29.2324 16.1141 29.2345 17.1287 29.2345 18.1423C29.2345 18.3414 29.3842 18.3988 29.5328 18.4561C29.9237 18.6073 30.3221 18.7387 30.6752 18.9754C32.2412 20.0234 32.4689 22.1966 31.1684 23.6659C30.7331 24.1581 30.2125 24.5199 29.5749 24.6941C29.3146 24.765 29.205 24.8911 29.224 25.1612C29.2377 25.3666 29.2292 25.5794 29.186 25.7806C29.1154 26.1133 28.8836 26.2979 28.54 26.2979C28.2143 26.2979 27.9762 26.0372 27.9351 25.6878C27.9035 25.4209 28.0542 25.0809 27.8444 24.9057C27.6684 24.7587 27.3491 24.7796 27.0941 24.7243C26.5471 24.6044 26.0549 24.3604 25.5955 24.0527C25.254 23.8244 25.1686 23.4813 25.3552 23.1768C25.5375 22.8786 25.8979 22.7879 26.2478 22.9808C26.6504 23.2018 27.0435 23.4333 27.504 23.5251C27.8023 23.5845 27.9467 23.5188 27.9372 23.182C27.9182 22.573 27.9309 21.9609 27.9309 21.3499ZM30.7026 21.6992C30.7004 20.6794 30.3116 20.1288 29.5812 19.8284C29.3378 19.7283 29.2219 19.7367 29.224 20.0433C29.2345 21.0704 29.2324 22.0975 29.225 23.1236C29.2229 23.4187 29.3283 23.4719 29.5749 23.3322C30.3074 22.9151 30.6794 22.2873 30.7026 21.6992ZM27.9309 16.3539C27.9309 15.9775 27.9245 15.6021 27.933 15.2256C27.9393 14.9628 27.8297 14.9284 27.6273 15.0546C27.1078 15.3789 26.8728 15.8482 26.8527 16.453C26.8338 17.0307 27.1489 17.3612 27.6147 17.6167C27.835 17.7377 27.9456 17.7377 27.934 17.4426C27.9203 17.0797 27.9309 16.7168 27.9309 16.3539Z" fill="white"/>
<path d="M18.9349 25.9194C18.4396 25.8745 18.0001 25.6983 17.6977 25.2749C17.2845 24.6952 17.0053 24.0528 16.843 23.3635C16.7544 22.9871 16.9463 22.6774 17.3046 22.5814C17.6271 22.4939 17.9453 22.6659 18.0623 23.0319C18.2099 23.4908 18.369 23.9402 18.6166 24.3583C18.7747 24.6253 18.9549 24.692 19.2279 24.5273C19.406 24.4199 19.5957 24.3271 19.7886 24.2447C20.1479 24.0904 20.4852 24.1842 20.6475 24.471C20.8224 24.7807 20.7276 25.1425 20.3872 25.3417C19.9393 25.6066 19.4945 25.8944 18.9349 25.9194Z" fill="white"/>
<path d="M5.79949 37.223C5.48543 37.2272 5.16294 36.9258 5.14713 36.6109C5.13027 36.2762 5.44433 35.9623 5.79211 35.9665C6.12408 35.9706 6.42654 36.2668 6.42444 36.5869C6.42233 36.906 6.11565 37.2188 5.79949 37.223Z" fill="white"/>
<path d="M10.8886 15.5666C10.8833 14.7741 11.131 14.1193 11.6179 13.553C12.5464 12.4738 14.1672 12.431 15.1716 13.4581C16.256 14.5666 16.2644 16.4874 15.1916 17.6084C14.1493 18.6971 12.48 18.622 11.5367 17.4384C11.0909 16.8774 10.8717 16.2361 10.8886 15.5666ZM14.6921 15.5072C14.6878 15.4426 14.691 15.3122 14.672 15.1839C14.5276 14.2173 13.5591 13.6865 12.8341 14.1735C11.991 14.7397 11.9456 16.2591 12.7529 16.8701C12.9236 16.9994 13.1144 17.0735 13.3315 17.0881C14.1145 17.1402 14.6857 16.5062 14.6921 15.5072Z" fill="white"/>
<path d="M10.1435 8.45283C10.1392 10.018 9.16967 11.1922 7.77433 11.3705C7.05453 11.4623 6.43064 11.188 5.91213 10.7011C4.72335 9.5832 4.72335 7.49347 5.92161 6.38917C6.59399 5.76871 7.39388 5.53722 8.28547 5.83128C9.28876 6.16184 9.82413 6.91369 10.0602 7.89911C10.1118 8.11184 10.1266 8.33395 10.1435 8.45283ZM8.84297 8.56128C8.84402 8.14834 8.74285 7.81673 8.51943 7.50181C8.05888 6.85425 7.28006 6.80002 6.73626 7.37877C6.12396 8.02946 6.15452 9.16818 6.7995 9.78133C7.31168 10.2673 8.01251 10.2276 8.45409 9.6781C8.71439 9.35379 8.85878 8.9836 8.84297 8.56128Z" fill="white"/>
<path d="M13.3789 6.88344C13.3536 6.9606 13.3209 7.09929 13.2651 7.22964C11.8645 10.5353 10.4618 13.8398 9.06115 17.1454C8.96103 17.3832 8.83351 17.5928 8.56055 17.6512C8.31394 17.7033 8.08525 17.6491 7.91874 17.4489C7.7322 17.2226 7.74696 16.9744 7.85656 16.7158C8.29919 15.6741 8.73655 14.6302 9.17813 13.5885C10.1435 11.3132 11.112 9.03991 12.0731 6.76352C12.2165 6.42253 12.4062 6.17122 12.8245 6.21397C13.1386 6.24421 13.3789 6.50908 13.3789 6.88344Z" fill="white"/>
</g>
<defs>
<clipPath id="clip0_24_16">
<rect width="40" height="40" fill="white"/>
</clipPath>
</defs>
</svg>
