<svg width="43" height="41" viewBox="0 0 43 41" fill="none" xmlns="http://www.w3.org/2000/svg">
<g clip-path="url(#clip0_24_51)">
<path d="M43.0002 27.1425C42.7322 27.9442 42.1829 28.4155 41.3836 28.6607C40.0595 29.0661 38.7501 29.517 37.4361 29.9542C36.8733 30.1415 36.3162 30.1995 35.7679 29.9167C35.5381 29.7986 35.472 29.8815 35.4753 30.1166C35.4966 31.762 33.8699 32.9646 32.4113 32.7375C32.1692 32.7 32.1367 32.7999 32.1019 33.0009C31.8127 34.6929 30.8889 35.514 29.1971 35.5787C28.9539 35.5878 28.8597 35.6582 28.8384 35.9171C28.7095 37.4251 27.6141 38.4642 26.1197 38.4812C25.8282 38.4846 25.7453 38.5857 25.6858 38.8469C25.2587 40.7149 23.6533 41.4485 21.9873 40.548C21.8517 40.4742 21.716 40.4003 21.5792 40.3299C21.2799 40.1766 20.9895 39.9268 20.679 39.8984C20.3516 39.8689 20.2317 40.305 19.9884 40.506C19.0949 41.2463 17.7249 41.1498 16.9692 40.2425C16.7674 39.9995 16.6508 39.9529 16.3717 40.1448C15.1474 40.9874 13.6351 40.6661 12.8211 39.4022C12.6687 39.166 12.5812 39.1103 12.3167 39.275C10.6395 40.3209 8.62709 39.2704 8.47911 37.2764C8.4578 36.9823 8.34345 36.8971 8.08223 36.8562C6.386 36.5905 5.451 34.744 6.25595 33.2019C6.57435 32.591 6.98355 32.0277 7.37258 31.4565C7.52168 31.2374 7.51496 31.1113 7.35912 30.874C7.00597 30.3357 6.54184 30.1711 5.93083 30.0109C4.32429 29.5919 2.74689 29.0412 1.18407 28.4711C0.181805 28.1054 -0.231883 26.9721 0.129113 25.8388C0.940793 23.294 1.7592 20.7515 2.57536 18.2078C2.97224 16.97 3.36462 15.7299 3.76934 14.4944C4.17855 13.2476 5.21108 12.7241 6.45551 13.1215C7.1349 13.3384 7.81878 13.5451 8.48808 13.7915C8.84122 13.921 8.91297 13.8312 8.91185 13.4735C8.90176 9.73409 8.90513 5.99577 8.90625 2.25631C8.90625 0.719877 9.61591 0.00559926 11.1451 0.00559926C15.8291 0.00559926 20.5131 0.0101416 25.1982 -0.0012142C25.6813 -0.00234978 26.048 0.145275 26.3888 0.492762C28.8025 2.95469 31.2252 5.40754 33.6558 7.85357C33.9854 8.1863 34.1435 8.5406 34.1367 9.01867C34.1165 10.5051 34.139 11.9927 34.1222 13.4804C34.1177 13.8562 34.2174 13.9119 34.5527 13.7892C35.2231 13.5451 35.9058 13.3361 36.5852 13.1192C37.8274 12.7229 38.8633 13.2487 39.2669 14.5012C40.4418 18.1464 41.6078 21.7962 42.7782 25.4425C42.8432 25.6435 42.9262 25.8388 43.0013 26.0364C43.0002 26.4066 43.0002 26.7746 43.0002 27.1425ZM17.698 1.49434C15.4602 1.49434 13.2225 1.49321 10.9848 1.49548C10.4567 1.49661 10.3749 1.58064 10.3738 2.11437C10.3715 6.05255 10.3771 9.99073 10.3648 13.9278C10.3637 14.29 10.4915 14.4445 10.82 14.5614C11.4825 14.7976 11.8985 15.2882 12.0823 15.9843C12.2214 16.5089 12.0868 16.9904 11.922 17.4776C11.8727 17.6241 11.7516 17.8273 12.0162 17.8898C12.6709 18.0431 13.329 18.2032 13.9579 17.7887C14.4288 17.4799 14.9299 17.2266 15.4524 17.0222C16.3325 16.677 17.2338 16.4374 18.1912 16.5669C19.2697 16.7122 20.2664 17.1278 21.2552 17.5525C21.6117 17.7058 21.9133 17.7263 22.2866 17.5809C23.1577 17.2437 24.0288 16.8542 24.9829 16.8394C26.3697 16.8167 27.6164 17.3107 28.7734 18.0363C29.2756 18.352 29.779 18.419 30.3339 18.3111C31.3037 18.1237 31.3037 18.126 31.01 17.1653C30.6523 15.9968 31.1423 14.9543 32.2779 14.5376C32.5918 14.4229 32.6658 14.2469 32.6636 13.9391C32.6513 12.6219 32.6591 11.3046 32.658 9.98732C32.658 9.39568 32.6569 9.39455 32.0885 9.39455C30.0604 9.39341 28.0334 9.39455 26.0053 9.39455C25.0939 9.39455 24.8585 9.15948 24.8585 8.24307C24.8573 6.17519 24.8472 4.10617 24.8663 2.03828C24.8708 1.61471 24.7564 1.47731 24.3248 1.48185C22.1174 1.5057 19.9077 1.49434 17.698 1.49434ZM20.0119 18.6086C18.9928 18.2827 18.1329 17.8364 17.115 18.0556C16.1968 18.2543 15.3638 18.6279 14.5768 19.1287C14.3503 19.2729 14.1171 19.3854 13.8503 19.4421C13.2057 19.5795 12.5723 19.5239 11.9388 19.3797C11.3592 19.2479 11.357 19.2445 11.1686 19.835C10.5397 21.8007 9.91524 23.7687 9.28294 25.7332C8.93652 26.8098 8.5957 27.8874 8.2134 28.9515C8.11363 29.2285 8.02842 29.4522 8.24592 29.6839C8.5161 29.9712 8.70557 30.3777 9.21007 30.3141C10.6081 30.1393 11.9175 31.2374 11.968 32.6409C11.9792 32.9396 12.0633 33.0588 12.3581 33.1088C13.1272 33.2405 13.7405 33.638 14.1306 34.3364C14.2506 34.5521 14.3391 34.5657 14.5465 34.4397C15.9221 33.6016 17.3325 33.9639 18.1722 35.3686C18.2832 35.5537 18.374 35.6014 18.5679 35.5094C18.8762 35.3629 19.2081 35.3039 19.5467 35.3334C21.031 35.4629 21.9245 36.7926 21.5041 38.2462C21.457 38.4097 21.3651 38.5641 21.5882 38.6777C22.0378 38.9071 22.4705 39.1716 22.9302 39.3772C23.4044 39.5884 23.9291 39.3806 24.1555 38.9445C24.3898 38.4948 24.262 37.9736 23.8304 37.6716C23.6701 37.5591 23.493 37.4717 23.3203 37.3786C22.7295 37.0572 22.1331 36.7438 21.5467 36.4133C21.2496 36.2464 21.1095 35.9739 21.1745 35.6275C21.2373 35.2982 21.466 35.1222 21.7754 35.0495C21.9974 34.9973 22.1857 35.1086 22.3707 35.2073C23.41 35.7626 24.4403 36.3327 25.4863 36.8732C26.1589 37.2207 26.9247 36.9732 27.2565 36.3429C27.5883 35.715 27.354 34.9269 26.706 34.5487C26.2823 34.3012 25.8439 34.0809 25.4134 33.8447C25.0816 33.663 24.7407 33.4938 24.4246 33.2871C24.086 33.0645 24.0042 32.6955 24.1768 32.3582C24.3551 32.0084 24.7228 31.8756 25.1073 32.0289C25.2105 32.0697 25.308 32.1288 25.4067 32.1822C26.5065 32.7727 27.5996 33.3757 28.7072 33.9491C29.4673 34.3432 30.288 34.0173 30.5727 33.2451C30.8048 32.616 30.557 31.9698 29.8945 31.6019C28.7678 30.9751 27.6242 30.3766 26.4908 29.76C26.0334 29.5113 25.891 29.0991 26.1006 28.7016C26.2991 28.3258 26.6971 28.2247 27.15 28.4586C27.7475 28.7686 28.3361 29.0945 28.9292 29.4136C29.9909 29.9848 31.0436 30.5742 32.1176 31.1227C32.9797 31.5633 33.9114 31.0977 34.0313 30.1699C34.1076 29.5806 33.7925 29.1297 33.343 28.8004C30.8586 26.9812 28.224 25.4539 25.2609 24.567C24.9055 24.4602 24.5939 24.4671 24.2463 24.5863C22.1801 25.2915 20.1117 25.9865 18.0388 26.6701C16.8269 27.0698 15.8448 26.7484 15.069 25.7298C14.7338 25.2904 14.4938 24.7964 14.2494 24.3001C14.0062 23.8062 14.0129 23.3894 14.4299 22.9988C14.6553 22.7875 14.847 22.54 15.0645 22.3197C16.495 20.8661 18.1049 19.6533 20.0119 18.6086ZM34.2668 27.6478C34.2903 27.624 34.315 27.6001 34.3385 27.5774C33.5067 24.9803 32.6737 22.3844 31.8474 19.7851C31.7577 19.5023 31.5985 19.5137 31.3609 19.575C30.6714 19.7544 29.9842 19.8986 29.2532 19.7987C28.6366 19.7147 28.1792 19.3411 27.6623 19.0708C26.6903 18.5632 25.6634 18.0897 24.5748 18.3758C21.1812 19.2695 18.2787 21.0501 15.8448 23.6097C15.7584 23.7005 15.6676 23.7846 15.6912 23.9379C15.838 24.9031 16.8403 25.5356 17.7563 25.229C19.8662 24.5238 21.9783 23.8243 24.0815 23.0976C24.5445 22.9374 24.965 22.9454 25.428 23.0817C28.3339 23.9367 30.9707 25.338 33.4461 27.0766C33.7186 27.2685 33.9932 27.457 34.2668 27.6478ZM10.6675 16.5816C10.6854 16.1058 10.4354 15.9684 10.1395 15.8719C8.82329 15.4404 7.50823 15.0088 6.19205 14.5773C5.488 14.3457 5.30301 14.4365 5.07879 15.1394C3.89827 18.8278 2.71999 22.5161 1.54283 26.2045C1.33879 26.845 1.43968 27.0448 2.05966 27.2481C3.36238 27.6751 4.66511 28.0998 5.96783 28.5267C6.63152 28.7448 6.83893 28.6392 7.0553 27.9612C8.22686 24.3001 9.39729 20.639 10.5655 16.9768C10.6159 16.8167 10.6496 16.6509 10.6675 16.5816ZM32.371 16.6066C32.3743 16.6191 32.3934 16.7304 32.427 16.8371C33.621 20.58 34.815 24.3228 36.0135 28.0646C36.1895 28.6119 36.4328 28.7312 36.9675 28.5574C38.3106 28.1213 39.6537 27.6819 40.9957 27.2413C41.5809 27.0494 41.6896 26.8302 41.4957 26.2204C40.6896 23.6892 39.8824 21.158 39.0741 18.6268C38.6873 17.4151 38.3028 16.2023 37.9092 14.9929C37.768 14.5592 37.518 14.3672 37.1783 14.4751C35.6872 14.9532 34.2006 15.4472 32.714 15.9434C32.4629 16.0286 32.3407 16.2285 32.371 16.6066ZM26.3372 2.66739C26.2935 2.71622 26.3271 2.81956 26.3271 2.91268C26.3249 4.42754 26.3338 5.94126 26.3193 7.45612C26.3159 7.81042 26.4336 7.91943 26.7778 7.91603C28.2733 7.90127 29.7678 7.91035 31.2633 7.90808C31.3541 7.90808 31.4584 7.94555 31.5077 7.89218C29.7812 6.14793 28.0592 4.40823 26.3372 2.66739ZM13.0173 35.841C13.0241 35.1812 12.7729 34.7963 12.3514 34.6271C11.9388 34.4613 11.4399 34.5544 11.1742 34.9166C10.7684 35.4708 10.3839 36.0454 10.0307 36.6359C9.77623 37.0617 9.86703 37.5319 10.1955 37.8805C10.5117 38.2166 11.042 38.3688 11.4175 38.0928C12.2371 37.4899 12.6463 36.5757 13.0173 35.841ZM7.43872 34.1433C7.42863 34.7974 7.65734 35.1699 8.06093 35.3459C8.48247 35.5299 8.93428 35.4594 9.24706 35.0892C9.7112 34.5396 10.1013 33.9321 10.4399 33.2962C10.663 32.8771 10.552 32.407 10.2325 32.0868C9.89618 31.7495 9.41859 31.6098 9.04526 31.8824C8.21789 32.4865 7.79972 33.3984 7.43872 34.1433ZM14.9725 39.116C15.2562 39.133 15.5566 39.032 15.745 38.7662C16.152 38.1916 16.5567 37.6125 16.9031 37.0016C17.1699 36.5303 16.9782 35.9466 16.5511 35.657C16.1217 35.3663 15.4894 35.4072 15.1777 35.8194C14.7539 36.3793 14.347 36.9618 14.0095 37.5784C13.625 38.2802 14.1474 39.1092 14.9725 39.116ZM20.1509 37.5943C20.161 37.1923 19.9693 36.9618 19.633 36.8346C19.2899 36.7052 19.0175 36.8539 18.8247 37.1128C18.5309 37.5069 18.263 37.9225 18.0063 38.3438C17.7596 38.7492 17.8583 39.1864 18.217 39.4181C18.5556 39.6361 18.967 39.5475 19.2428 39.166C19.5153 38.7901 19.7619 38.396 20.0186 38.0077C20.1061 37.876 20.1599 37.7317 20.1509 37.5943Z" fill="white"/>
<path d="M19.6397 12.3108C19.6397 12.2404 19.633 12.1677 19.6408 12.0985C19.7339 11.3286 19.6094 10.7937 18.7697 10.3872C17.6498 9.84435 17.2439 8.73489 17.3841 7.48462C17.5141 6.33315 18.1509 5.52916 19.1913 5.07039C19.4693 4.94775 19.6476 4.84441 19.6644 4.48557C19.6823 4.11991 19.9615 3.92459 20.3314 3.91437C20.6913 3.90415 21.0198 4.14943 21.0209 4.51055C21.022 4.86258 21.207 4.95456 21.4727 5.0613C22.5815 5.50872 23.3169 6.60682 23.3069 7.76398C23.3024 8.25454 23.0905 8.52935 22.6846 8.56796C22.2609 8.60771 21.9694 8.35107 21.9066 7.87072C21.8461 7.40854 21.7048 6.98724 21.3404 6.67609C21.2799 6.62499 21.188 6.56821 21.1218 6.57957C21.0232 6.5966 21.0433 6.71357 21.0422 6.79533C21.0411 7.60272 21.0501 8.41012 21.0366 9.21751C21.0321 9.50709 21.2227 9.55478 21.4212 9.63541C22.9728 10.2713 23.7273 11.994 23.1275 13.5577C22.8136 14.3764 22.2452 14.9624 21.4312 15.2804C21.1913 15.3746 21.0344 15.4723 21.0243 15.78C21.012 16.1582 20.6678 16.4364 20.3202 16.425C19.9805 16.4137 19.6655 16.1502 19.6543 15.7857C19.6442 15.4814 19.494 15.3814 19.2518 15.2815C18.0758 14.7955 17.356 13.7314 17.365 12.5266C17.3684 12.0735 17.6206 11.7692 18.0175 11.7385C18.4043 11.709 18.7193 11.9883 18.7686 12.4289C18.8202 12.8945 18.957 13.3135 19.3191 13.6292C19.3908 13.6917 19.4615 13.7973 19.5657 13.7598C19.6846 13.7167 19.6352 13.5883 19.6364 13.4964C19.6431 13.1035 19.6397 12.7071 19.6397 12.3108ZM19.6397 7.9309C19.6397 7.56298 19.642 7.19619 19.6375 6.82826C19.6364 6.73628 19.6745 6.60455 19.55 6.57843C19.4861 6.56594 19.3964 6.63067 19.3325 6.68064C18.6117 7.24161 18.6408 8.55774 19.3852 9.08919C19.439 9.1278 19.5164 9.1789 19.568 9.16528C19.6711 9.13802 19.6375 9.02674 19.6386 8.94838C19.642 8.60998 19.6397 8.27044 19.6397 7.9309ZM21.0422 12.4914C21.0422 12.8445 21.04 13.1977 21.0433 13.5509C21.0445 13.6304 21.0153 13.7417 21.1196 13.7655C21.1723 13.778 21.2474 13.7246 21.3012 13.6849C22.0602 13.1375 22.0613 11.801 21.3034 11.257C21.2485 11.2184 21.1734 11.1616 21.1218 11.1741C21.022 11.1991 21.0433 11.3081 21.0433 11.3899C21.0411 11.7567 21.0422 12.1235 21.0422 12.4914Z" fill="white"/>
<path d="M8.51289 17.8785C8.11938 17.8865 7.80435 17.5617 7.80323 17.1461C7.8021 16.735 8.11601 16.4125 8.51289 16.417C8.8907 16.4216 9.1934 16.7316 9.20461 17.1245C9.21582 17.531 8.90527 17.8706 8.51289 17.8785Z" fill="white"/>
<path d="M34.4956 17.7786C34.1178 17.7808 33.7758 17.4368 33.7725 17.0507C33.7691 16.6691 34.1111 16.3262 34.4956 16.3262C34.8891 16.3262 35.2165 16.6544 35.2153 17.0473C35.212 17.4334 34.8757 17.7763 34.4956 17.7786Z" fill="white"/>
</g>
<defs>
<clipPath id="clip0_24_51">
<rect width="43" height="41" fill="white"/>
</clipPath>
</defs>
</svg>
