<svg width="41" height="40" viewBox="0 0 41 40" fill="none" xmlns="http://www.w3.org/2000/svg">
<path d="M39.4351 34.6237L36.612 16.557C36.4838 15.7361 35.7877 15.1401 34.9567 15.1401H29.9045C29.5593 15.1401 29.2795 15.4199 29.2795 15.7651C29.2795 16.1102 29.5593 16.3901 29.9045 16.3901H34.9567C35.1676 16.3901 35.3446 16.5414 35.3772 16.7499L36.4712 23.7509H7.27101L6.19755 16.8814C6.17131 16.713 6.24729 16.5945 6.2949 16.539C6.34251 16.4832 6.44779 16.3901 6.61808 16.3901H11.1917C11.5369 16.3901 11.8167 16.1102 11.8167 15.7651C11.8167 15.4199 11.5369 15.1401 11.1917 15.1401H6.61808C6.12797 15.1401 5.6641 15.3537 5.34519 15.726C5.05977 16.0596 4.92775 16.4892 4.95575 16.9233L2.21012 33.6234C2.11887 34.1785 2.2794 34.7397 2.64988 35.163C3.02016 35.5864 3.55797 35.8194 4.11808 35.8017L7.97039 35.6833C8.25547 36.2109 8.80829 36.5579 9.44126 36.5579H37.7799C38.27 36.5579 38.7338 36.3443 39.0528 35.972C39.3714 35.5997 39.5108 35.108 39.4351 34.6237ZM4.07963 34.5523C3.89042 34.5572 3.71372 34.4803 3.59013 34.3393C3.46654 34.1983 3.41313 34.0112 3.44364 33.826L5.56457 20.9254L7.67674 34.4417L4.07963 34.5523ZM38.103 35.159C38.0554 35.2148 37.9502 35.3079 37.7799 35.3079H9.44127C9.23039 35.3079 9.05339 35.1565 9.02074 34.9481L7.46636 25.0009H36.6665L38.2004 34.8166C38.2266 34.985 38.1507 35.1035 38.103 35.159Z" fill="white"/>
<path d="M35.0616 27.5241H19.7787C19.5963 27.5241 19.4226 27.6041 19.3039 27.7426C19.1852 27.8815 19.133 28.0652 19.1614 28.2455L19.9689 33.4134C20.0162 33.7177 20.2783 33.942 20.5862 33.942H35.8691C36.0516 33.942 36.2253 33.862 36.344 33.7234C36.4627 33.5846 36.5149 33.4009 36.4865 33.2205L35.679 28.0527C35.6317 27.7484 35.3696 27.5241 35.0616 27.5241ZM21.1212 32.692L20.509 28.7741H34.5267L35.1388 32.692H21.1212Z" fill="white"/>
<path d="M20.7056 19.6921C25.1858 19.6921 28.8306 16.0474 28.8306 11.5671C28.8306 7.08679 25.1858 3.44208 20.7056 3.44208C16.2253 3.44208 12.5806 7.08679 12.5806 11.5671C12.5806 16.0474 16.2253 19.6921 20.7056 19.6921ZM20.7056 4.69208C24.4964 4.69208 27.5806 7.77618 27.5806 11.5671C27.5806 15.358 24.4964 18.4421 20.7056 18.4421C16.9147 18.4421 13.8306 15.358 13.8306 11.5671C13.8306 7.77618 16.9147 4.69208 20.7056 4.69208Z" fill="white"/>
<path d="M20.7056 14.6921C20.0162 14.6921 19.4556 14.1315 19.4556 13.4421C19.4556 13.0969 19.1757 12.8171 18.8306 12.8171C18.4854 12.8171 18.2056 13.0969 18.2056 13.4421C18.2056 14.6035 19.0054 15.5738 20.0806 15.8533V16.5857C20.0806 16.9308 20.3604 17.2107 20.7056 17.2107C21.0507 17.2107 21.3306 16.9308 21.3306 16.5857V15.8533C22.4057 15.5738 23.2056 14.6035 23.2056 13.4421C23.2056 12.0636 22.084 10.9421 20.7056 10.9421C20.0162 10.9421 19.4556 10.3815 19.4556 9.69207C19.4556 9.00268 20.0162 8.44207 20.7056 8.44207C21.3949 8.44207 21.9556 9.00268 21.9556 9.69207C21.9556 10.0372 22.2354 10.3171 22.5806 10.3171C22.9257 10.3171 23.2056 10.0372 23.2056 9.69207C23.2056 8.53065 22.4057 7.56038 21.3306 7.28084V6.54846C21.3306 6.20331 21.0507 5.92346 20.7056 5.92346C20.3604 5.92346 20.0806 6.20331 20.0806 6.54846V7.28084C19.0054 7.56039 18.2056 8.53065 18.2056 9.69207C18.2056 11.0706 19.3271 12.1921 20.7056 12.1921C21.3949 12.1921 21.9556 12.7527 21.9556 13.4421C21.9556 14.1315 21.3949 14.6921 20.7056 14.6921Z" fill="white"/>
</svg>
