<svg width="43" height="49" viewBox="0 0 43 49" fill="none" xmlns="http://www.w3.org/2000/svg">
<g clip-path="url(#clip0_24_35)">
<path d="M14.7525 -6.51348e-05C16.2231 0.249074 17.6594 0.609369 19.003 1.28907C22.3996 3.00622 24.6898 5.69182 25.8584 9.3267C26.0119 9.80453 26.2162 9.92847 26.6857 9.92591C29.7727 9.90675 32.8584 9.92336 35.9455 9.90802C36.4923 9.90547 36.9161 10.0767 37.298 10.4651C39.0134 12.2091 40.7365 13.9441 42.4697 15.6715C42.83 16.0305 43.0013 16.4189 43 16.9401C42.9874 22.6946 42.9924 28.4478 42.9937 34.2023C42.9937 34.509 43.0038 34.8105 42.7374 35.0353C42.509 35.227 42.2553 35.2781 41.9837 35.1733C41.7147 35.0686 41.5358 34.8718 41.513 34.569C41.499 34.3952 41.5041 34.2189 41.5041 34.0439C41.5041 28.688 41.5041 23.3335 41.5041 17.9776C41.5041 17.3388 41.5028 17.3375 40.8862 17.3375C39.6516 17.3362 38.4171 17.3388 37.1825 17.3362C36.0939 17.3337 35.6321 16.8635 35.6295 15.7532C35.6257 14.5101 35.6143 13.2669 35.6359 12.0238C35.6435 11.5996 35.4963 11.477 35.0865 11.4782C29.9897 11.4885 24.8928 11.4897 19.796 11.477C19.3558 11.4757 19.2289 11.6239 19.2314 12.057C19.2479 14.7988 19.2466 17.5394 19.2314 20.2812C19.2289 20.699 19.352 20.8306 19.7719 20.828C21.8769 20.8088 23.9818 20.8152 26.0881 20.8203C28.4062 20.8267 30.3817 22.6256 30.6469 24.9343C30.7865 26.1506 30.9692 27.3618 31.1341 28.5756C31.1697 28.8388 31.2128 28.964 31.5795 28.8797C32.6034 28.6433 33.6641 28.6561 34.6855 28.8477C35.712 29.0407 36.3261 30.1318 36.1206 31.2101C35.8744 32.5031 35.1245 33.3553 33.843 33.6836C33.5005 33.7718 33.3622 33.8139 33.6502 34.1768C34.6119 35.3841 35.1017 36.7742 35.1119 38.3278C35.1131 38.5029 35.1296 38.6804 35.1131 38.8529C35.0522 39.5135 35.1055 40.1101 35.7666 40.4921C35.981 40.6161 36.1294 40.8652 36.198 41.1092C36.3096 41.5091 36.5507 41.5973 36.9351 41.5922C38.2966 41.5717 39.658 41.5743 41.0182 41.5909C41.3861 41.5947 41.5193 41.4772 41.513 41.0977C41.494 39.9351 41.5041 38.7712 41.5079 37.6072C41.5092 36.9901 41.7858 36.6528 42.2641 36.6656C42.7272 36.6771 42.9937 37.0055 42.995 37.5893C42.9988 38.9922 42.9988 40.395 42.995 41.7966C42.9924 42.668 42.5154 43.1535 41.6399 43.1586C40.0095 43.1675 38.379 43.1713 36.7486 43.1547C36.3933 43.1509 36.1396 43.2352 35.9734 43.5649C35.9112 43.6888 35.8148 43.8293 35.6968 43.8855C35.0966 44.1756 35.0751 44.6879 35.1093 45.2539C35.1372 45.7138 35.1207 46.1776 35.1106 46.6401C35.0827 47.9446 34.0321 48.9833 32.729 48.9999C32.4131 49.0038 32.0959 49.0012 31.7787 49.0012C30.2663 48.9974 29.2157 47.9689 29.1738 46.4434C29.1611 45.9975 29.151 45.5503 29.1764 45.1044C29.1992 44.7058 29.0457 44.5819 28.6561 44.5844C26.725 44.5997 24.7939 44.5908 22.8628 44.5908C19.0474 44.5908 15.2334 44.5908 11.4181 44.5908C10.7951 44.5908 10.7951 44.5934 10.7926 45.2271C10.7913 45.6896 10.804 46.1521 10.7875 46.6133C10.7418 47.9472 9.68107 48.9859 8.36278 48.9987C7.99863 49.0025 7.63448 49.0025 7.27033 48.9987C5.9292 48.9859 4.87101 47.928 4.84817 46.5686C4.83675 45.931 4.83929 45.2935 4.84817 44.656C4.85071 44.4285 4.77078 44.2803 4.59061 44.1334C3.17588 42.9823 3.17208 41.2804 4.58553 40.1574C4.8063 39.9824 4.84564 39.7882 4.84817 39.539C4.85832 38.6485 4.79235 37.7554 4.97759 36.8713C5.20979 35.7623 5.65514 34.7568 6.39866 33.8318C6.1449 33.7769 5.93428 33.7347 5.72619 33.6849C4.23534 33.3271 3.28119 31.9882 3.42584 30.4563C3.50958 29.5658 4.33304 28.7609 5.26561 28.7736C6.25275 28.7864 7.26018 28.5769 8.22575 28.9627C8.40465 29.0343 8.44018 28.927 8.46428 28.78C8.60132 27.9317 8.74088 27.0846 8.88553 26.2388C8.93882 25.9309 8.69521 25.9143 8.51504 25.8427C6.65877 25.1106 5.02454 24.0374 3.66057 22.5745C1.23714 19.972 -0.0367473 16.898 0.00131706 13.3129C0.0495319 8.6406 2.02888 4.98528 5.77567 2.26902C6.11318 2.02371 6.4621 1.93172 6.82498 2.20131C7.11935 2.42106 7.15233 2.73664 7.06352 3.06371C6.98739 3.34607 6.73743 3.4815 6.51793 3.63865C4.31654 5.22037 2.79778 7.30547 2.01999 9.91569C0.284262 15.7315 3.19491 21.9102 8.75484 24.2687C9.06316 24.399 9.2446 24.4143 9.33215 24.0259C9.38798 23.7819 9.49583 23.5392 9.62905 23.3258C9.81557 23.0281 9.74832 22.9003 9.43366 22.77C7.65098 22.0303 6.19058 20.8702 5.04865 19.3012C0.690282 13.318 4.12368 4.63904 11.3762 3.3103C16.1101 2.44278 20.7032 4.95079 22.5367 9.42635C22.7016 9.82753 22.916 9.92974 23.3144 9.92335C24.5071 9.90419 24.5224 9.91186 24.0415 8.81309C22.2283 4.67482 19.0868 2.25241 14.6535 1.58804C13.0307 1.34529 11.4041 1.50883 9.82445 2.00711C9.67346 2.05438 9.5212 2.10548 9.36641 2.12465C8.91852 2.18342 8.57721 1.97261 8.47824 1.59187C8.37166 1.18047 8.56325 0.809958 8.99845 0.648975C9.77243 0.362784 10.5743 0.182637 11.3914 0.0663721C11.4993 0.0510404 11.6059 0.0216547 11.7124 -0.00134277C12.7262 -6.51348e-05 13.7387 -6.51348e-05 14.7525 -6.51348e-05ZM17.672 15.8235C17.672 14.3108 17.6657 12.7968 17.6746 11.284C17.6797 10.4127 18.1745 9.92591 19.0335 9.91569C19.555 9.91058 20.079 9.89397 20.5992 9.9208C21.0103 9.94124 21.0522 9.82753 20.8809 9.46979C19.22 6.00739 15.1623 4.05133 11.4308 4.87029C7.48857 5.73653 4.59695 9.3893 4.68577 13.4407C4.7657 17.1446 7.11934 20.4345 10.5972 21.5575C10.8496 21.6393 11.0615 21.6546 11.309 21.4949C12.0449 21.0209 12.8556 20.7986 13.7375 20.8139C14.8439 20.8318 15.9528 20.7961 17.0592 20.828C17.5287 20.8421 17.6949 20.7194 17.6835 20.2198C17.6505 18.7544 17.6708 17.2889 17.672 15.8235ZM19.7884 32.2066C22.9846 32.2066 26.182 32.2066 29.3781 32.2066C29.505 32.2066 29.6319 32.2015 29.7575 32.2066C29.9732 32.2143 30.0899 32.1466 30.0391 31.9C30.0074 31.7454 30.0112 31.5832 29.9897 31.4247C29.7473 29.7089 29.4986 27.9943 29.2639 26.2771C29.1662 25.5668 29.1802 25.5642 28.4544 25.5642C24.0389 25.5642 19.6247 25.5642 15.2093 25.5642C13.8161 25.5642 12.4242 25.5719 11.0311 25.5591C10.6872 25.5565 10.5375 25.6498 10.4792 26.0254C10.1924 27.8959 9.86759 29.76 9.56308 31.6279C9.46918 32.2041 9.4806 32.2079 10.0541 32.2079C13.2997 32.2066 16.5441 32.2066 19.7884 32.2066ZM19.8379 33.7845C16.3411 33.7845 12.8455 33.7935 9.34865 33.7743C8.86523 33.7718 8.50869 33.9289 8.15977 34.2407C6.61563 35.6218 6.26797 37.4054 6.40627 39.3653C6.42404 39.6208 6.57629 39.6796 6.79072 39.6796C7.20182 39.6796 7.61418 39.663 8.02401 39.6872C8.38943 39.7077 8.50108 39.6131 8.47063 39.2068C8.36405 37.8091 9.16721 36.8394 10.5439 36.6822C11.5031 36.5723 12.4725 36.5762 13.4317 36.6758C15.0735 36.8458 15.9579 37.6711 16.2725 39.3154C16.3423 39.6821 16.5428 39.6834 16.8067 39.6834C18.9104 39.6821 21.0154 39.6732 23.1191 39.6911C23.5225 39.6949 23.6697 39.5492 23.7344 39.1647C23.9641 37.7848 25.007 36.8279 26.3609 36.6848C27.2617 36.589 28.1626 36.6375 29.0634 36.6413C29.3591 36.6426 29.6674 36.6886 29.9491 36.778C31.0022 37.1128 31.6036 38.057 31.497 39.2183C31.4653 39.5633 31.5186 39.7192 31.9043 39.6911C32.3446 39.6591 32.7899 39.6821 33.2327 39.6821C33.4408 39.6821 33.6083 39.6425 33.6172 39.3755C33.6794 37.4079 33.2226 35.6486 31.6467 34.3275C31.1925 33.9468 30.7053 33.7666 30.0899 33.7718C26.673 33.7986 23.2561 33.7845 19.8379 33.7845ZM19.9204 43.0116C24.4602 43.0116 29 43.0116 33.5398 43.0116C33.7301 43.0116 33.9217 43.0244 34.1082 43.0001C34.5117 42.9478 34.7782 42.7152 34.8505 42.3089C34.9253 41.8886 34.7769 41.5602 34.3861 41.3584C34.1488 41.2357 33.8963 41.2511 33.6438 41.2511C24.5325 41.2511 15.4212 41.2511 6.30984 41.2511C6.18296 41.2511 6.05608 41.2447 5.93047 41.2587C5.41914 41.3149 5.08037 41.6957 5.09686 42.185C5.11336 42.6488 5.46228 42.9823 5.9698 43.0078C6.14363 43.0168 6.31746 43.0116 6.49128 43.0116C10.9676 43.0116 15.444 43.0116 19.9204 43.0116ZM19.8607 23.9876C22.6445 23.9876 25.427 23.9889 28.2108 23.985C28.3453 23.985 28.528 24.0502 28.6016 23.9007C28.6739 23.7538 28.5242 23.6388 28.4379 23.5328C27.8314 22.793 27.0701 22.3778 26.0969 22.3791C21.953 22.3829 17.8103 22.3842 13.6664 22.3778C12.7275 22.3765 11.9916 22.7751 11.3889 23.465C11.2798 23.5903 11.0869 23.7244 11.1681 23.9033C11.2417 24.063 11.4549 23.985 11.6046 23.985C14.3566 23.9889 17.1087 23.9876 19.8607 23.9876ZM32.2126 44.5908C31.8497 44.5908 31.4869 44.5997 31.1252 44.5882C30.8436 44.5793 30.7268 44.6968 30.7332 44.983C30.7446 45.4903 30.7357 45.9988 30.7395 46.5073C30.7421 46.8497 30.8689 47.1525 31.1747 47.3007C31.8015 47.6048 32.474 47.615 33.097 47.3313C33.6438 47.0835 33.621 46.5188 33.6223 46.0039C33.6223 44.5895 33.6223 44.5895 32.2126 44.5908ZM7.81973 44.5908C7.47334 44.5908 7.12569 44.5959 6.7793 44.5895C6.523 44.5844 6.4012 44.6956 6.405 44.9575C6.41262 45.5133 6.40627 46.069 6.41896 46.6248C6.42657 46.957 6.61309 47.1946 6.88969 47.3479C8.06842 47.9983 9.22811 47.3326 9.22811 46.0115C9.22811 44.5895 9.22811 44.5895 7.81973 44.5908ZM27.3848 39.6744C27.9684 39.6744 28.5521 39.6808 29.1358 39.6719C29.6572 39.6642 29.977 39.3998 29.9985 38.9832C30.0201 38.5693 29.6585 38.2077 29.1573 38.1975C28.3212 38.1809 27.485 38.1758 26.6489 38.1988C25.984 38.2167 25.4917 38.6217 25.2976 39.2081C25.1847 39.5492 25.2824 39.6834 25.6326 39.6783C26.2162 39.6693 26.8011 39.6757 27.3848 39.6744ZM12.5169 39.6732V39.6744C13.1322 39.6744 13.7476 39.6719 14.363 39.6757C14.7018 39.6783 14.7753 39.5045 14.6764 39.2132C14.4784 38.6306 14.0686 38.2486 13.471 38.2141C12.5587 38.1617 11.6414 38.1783 10.7266 38.2052C10.2584 38.2192 9.99828 38.5476 10.016 38.9884C10.0325 39.4049 10.2952 39.6578 10.7646 39.6693C11.3496 39.6834 11.9332 39.6732 12.5169 39.6732ZM37.1952 12.6511C37.1952 13.603 37.199 14.5088 37.1927 15.4146C37.1914 15.7008 37.35 15.7583 37.5886 15.7571C38.1418 15.7519 38.6962 15.7634 39.2494 15.7532C39.5831 15.7468 39.9232 15.8005 40.2391 15.7213C39.2253 14.7004 38.2344 13.7001 37.1952 12.6511ZM6.38597 30.3234C6.38597 30.326 6.38597 30.3272 6.38597 30.3298C6.07004 30.3298 5.75284 30.3209 5.4369 30.3324C5.09052 30.3451 4.91161 30.547 4.92811 30.8881C4.95729 31.5231 5.54348 32.1402 6.18296 32.1913C6.60801 32.2245 7.03687 32.2003 7.46319 32.2054C7.67508 32.2079 7.78674 32.1172 7.78674 31.8936C7.79308 30.1918 7.93646 30.317 6.43292 30.3247C6.41769 30.3234 6.40247 30.3234 6.38597 30.3234ZM33.1972 30.326C31.6137 30.326 31.7736 30.1714 31.7711 31.8093C31.7711 31.8246 31.7723 31.8412 31.7723 31.8566C31.7647 32.0942 31.8738 32.2079 32.1137 32.2041C32.5247 32.1977 32.9371 32.222 33.3469 32.1913C33.9902 32.144 34.5345 31.5653 34.5777 30.9392C34.6056 30.5496 34.4635 30.3234 34.0511 30.3247C33.7669 30.3272 33.4827 30.326 33.1972 30.326Z" fill="white"/>
<path d="M27.627 17.3338C26.2199 17.335 24.8128 17.335 23.4057 17.3338C23.2001 17.3338 22.9946 17.3453 22.8004 17.252C22.4997 17.1076 22.331 16.8674 22.3373 16.5365C22.3437 16.2069 22.5137 15.9693 22.8258 15.8415C23.0212 15.761 23.2255 15.7572 23.4323 15.7572C26.2465 15.7572 29.0608 15.7572 31.8737 15.7572C31.9372 15.7572 32.0006 15.7559 32.0628 15.7597C32.5842 15.7955 32.9091 16.0919 32.9154 16.5378C32.9218 17.0067 32.5893 17.3261 32.0374 17.3299C30.5681 17.3402 29.0976 17.3338 27.627 17.3338Z" fill="white"/>
<path d="M34.452 19.4789C35.4316 19.4789 36.4111 19.4751 37.3906 19.4802C37.9349 19.484 38.2559 19.7421 38.2965 20.188C38.3359 20.6147 38.0301 20.9712 37.4946 21.0031C36.7232 21.0491 35.948 21.0364 35.174 21.0389C34.0676 21.044 32.9625 21.0427 31.8561 21.0376C31.6518 21.0364 31.4437 21.0249 31.2445 20.984C30.8207 20.8958 30.5581 20.5534 30.5974 20.1752C30.638 19.7817 30.94 19.4904 31.3714 19.4853C32.3978 19.4738 33.4256 19.4815 34.452 19.4815C34.452 19.4802 34.452 19.4789 34.452 19.4789Z" fill="white"/>
<path d="M35.3681 24.2241C34.6893 24.2241 34.0104 24.2305 33.3316 24.2215C32.7898 24.2151 32.4346 23.9021 32.4295 23.4498C32.4244 23.032 32.7759 22.6679 33.2783 22.6602C34.6677 22.6411 36.057 22.6411 37.4464 22.6602C37.9488 22.6666 38.3016 23.0269 38.3016 23.446C38.3016 23.9021 37.9526 24.2139 37.4058 24.2215C36.7257 24.2305 36.0469 24.2228 35.3681 24.2241Z" fill="white"/>
<path d="M35.882 27.3824C35.3605 27.3824 34.8377 27.39 34.3162 27.3798C33.8138 27.3696 33.4966 27.0847 33.4801 26.6528C33.4649 26.2453 33.7351 25.9092 34.2122 25.8709C35.3313 25.7802 36.4555 25.7751 37.5746 25.8735C38.0453 25.9143 38.327 26.267 38.2978 26.6618C38.2661 27.0949 37.9514 27.3696 37.4489 27.3798C36.9262 27.39 36.4047 27.3824 35.882 27.3824Z" fill="white"/>
<path d="M14.5317 14.8602C14.5241 14.5446 14.2666 14.2175 13.8098 14.0361C13.3099 13.8381 12.7985 13.6669 12.31 13.442C11.5221 13.0804 10.8649 12.5668 10.6542 11.661C10.4018 10.5737 10.9423 9.42257 11.9662 8.90512C12.2568 8.7582 12.4065 8.58827 12.4331 8.2663C12.4699 7.8153 12.7491 7.57766 13.1792 7.54699C13.5738 7.51889 13.891 7.84085 13.9214 8.31102C13.9379 8.56144 14.0331 8.68793 14.2577 8.75692C14.5774 8.8553 14.8756 9.0035 15.1408 9.2092C15.5645 9.53756 15.6508 9.89913 15.4047 10.2799C15.1522 10.6695 14.7246 10.7615 14.2856 10.4792C13.924 10.2466 13.5471 10.1304 13.1195 10.1636C12.626 10.2019 12.2618 10.4856 12.154 10.9404C12.0487 11.3889 12.3024 11.661 12.6336 11.8897C13.0586 12.1823 13.5522 12.3113 14.0318 12.471C15.3159 12.899 16.0442 13.7755 16.0987 14.9726C16.1507 16.111 15.4389 17.2341 14.3224 17.7298C14.0623 17.846 13.9214 17.9687 13.9202 18.283C13.9176 18.7787 13.6461 19.0687 13.2337 19.1007C12.829 19.1326 12.5004 18.8682 12.4357 18.3941C12.3874 18.0428 12.2453 17.8614 11.8875 17.7988C11.4967 17.7298 11.1339 17.5573 10.8014 17.3363C10.4309 17.0897 10.3421 16.6668 10.5642 16.2937C10.7837 15.9257 11.1453 15.7993 11.5399 16.0024C12.0728 16.2758 12.6247 16.4419 13.2236 16.4151C13.9658 16.3857 14.5368 15.7852 14.5317 14.8602Z" fill="white"/>
</g>
<defs>
<clipPath id="clip0_24_35">
<rect width="43" height="49" fill="white"/>
</clipPath>
</defs>
</svg>
