<svg width="41" height="40" viewBox="0 0 41 40" fill="none" xmlns="http://www.w3.org/2000/svg">
<path d="M38 35.1152V16.3861C38 15.3522 37.1589 14.5111 36.125 14.5111H33.8716C32.8376 14.5111 31.9966 15.3522 31.9966 16.3861V32.7228C31.9966 33.0679 32.2761 33.3478 32.6216 33.3478C32.967 33.3478 33.2466 33.0679 33.2466 32.7228V16.3861C33.2466 16.0416 33.5267 15.7611 33.8716 15.7611H36.125C36.4698 15.7611 36.75 16.0416 36.75 16.3861V35H29.875V22.0111C29.875 20.9772 29.0339 20.1361 28 20.1361H25.7466C24.7126 20.1361 23.8716 20.9772 23.8716 22.0111V35H21.125V19.5111C21.125 18.4772 20.2839 17.6361 19.25 17.6361H16.9966C15.9626 17.6361 15.1216 18.4772 15.1216 19.5111V35H13V25.7611C13 24.7272 12.1589 23.8861 11.125 23.8861H8.87158C7.83764 23.8861 6.99658 24.7272 6.99658 25.7611V35H5.5V3.125C5.5 2.09106 4.65894 1.25 3.625 1.25C2.59106 1.25 1.75 2.09106 1.75 3.125V36.875C1.75 37.9089 2.59106 38.75 3.625 38.75H37.375C38.4089 38.75 39.25 37.9089 39.25 36.875C39.25 36.0613 38.7259 35.374 38 35.1152ZM25.1216 22.0111C25.1216 21.6666 25.4017 21.3861 25.7466 21.3861H28C28.3449 21.3861 28.625 21.6666 28.625 22.0111V35H25.1216V22.0111ZM16.3716 19.5111C16.3716 19.1666 16.6517 18.8861 16.9966 18.8861H19.25C19.5949 18.8861 19.875 19.1666 19.875 19.5111V35H16.3716V19.5111ZM8.24658 25.7611C8.24658 25.4166 8.52673 25.1361 8.87158 25.1361H11.125C11.4698 25.1361 11.75 25.4166 11.75 25.7611V35H8.24658V25.7611ZM37.375 37.5H3.625C3.28015 37.5 3 37.2196 3 36.875V3.125C3 2.78046 3.28015 2.5 3.625 2.5C3.96985 2.5 4.25 2.78046 4.25 3.125V35.625C4.25 35.9702 4.52954 36.25 4.875 36.25H37.375C37.7198 36.25 38 36.5305 38 36.875C38 37.2195 37.7198 37.5 37.375 37.5Z" fill="white"/>
<path d="M14.5288 15C17.4215 15 19.8978 13.2018 20.9111 10.6664L24.4143 12.418C24.6102 13.6025 25.6338 14.5111 26.8732 14.5111C28.3024 14.5188 29.5 13.2633 29.3549 11.8307L33.4816 8.35977C33.9035 8.68489 34.4254 8.88612 34.9982 8.88612C36.3769 8.88612 37.4982 7.7646 37.4982 6.38612C37.4982 5.00764 36.3769 3.88612 34.9982 3.88612C33.6194 3.88612 32.4982 5.00764 32.4982 6.38612C32.4982 6.73913 32.5735 7.07418 32.7061 7.37897L28.9104 10.5715C28.4571 9.93214 27.715 9.51111 26.8732 9.51111C25.8203 9.51111 24.9218 10.1671 24.5539 11.0902L21.2729 9.44966C21.357 9.02062 21.4038 8.5783 21.4038 8.125C21.4038 4.33411 18.3197 1.25 14.5288 1.25C11.8909 1.25 9.45313 2.78961 8.31848 5.17273C8.17017 5.48432 8.30261 5.85724 8.6145 6.00556C8.92639 6.15417 9.29931 6.02112 9.44763 5.70984C10.376 3.76008 12.3706 2.50001 14.5288 2.50001C17.6306 2.50001 20.1538 5.02351 20.1538 8.12501C20.1538 11.2265 17.6306 13.75 14.5288 13.75C11.427 13.75 8.90381 11.2265 8.90381 8.12501C8.90381 7.77985 8.62426 7.50001 8.27881 7.50001C7.93335 7.50001 7.65381 7.77985 7.65381 8.12501C7.65381 11.9159 10.7379 15 14.5288 15ZM34.9982 5.13612C35.6873 5.13612 36.2482 5.69673 36.2482 6.38613C36.2482 7.07552 35.6873 7.63613 34.9982 7.63613C34.3091 7.63613 33.7482 7.07552 33.7482 6.38613C33.7482 5.69673 34.3091 5.13612 34.9982 5.13612ZM26.8732 10.7611C27.5623 10.7611 28.1232 11.3217 28.1232 12.0111C28.1232 12.7005 27.5623 13.2611 26.8732 13.2611C26.1841 13.2611 25.6232 12.7005 25.6232 12.0111C25.6232 11.3217 26.1841 10.7611 26.8732 10.7611Z" fill="white"/>
<path d="M14.529 10.5356C14.0371 10.5356 13.6367 10.1352 13.6367 9.64293C13.6367 9.29777 13.3572 9.01793 13.0117 9.01793C12.6663 9.01793 12.3867 9.29777 12.3867 9.64293C12.3867 10.6053 13.029 11.4121 13.904 11.6817V12.1875C13.904 12.5326 14.1836 12.8125 14.529 12.8125C14.8745 12.8125 15.154 12.5326 15.154 12.1875V11.6817C16.0296 11.4123 16.672 10.6055 16.672 9.64294C16.672 8.46129 15.7107 7.49999 14.529 7.49999C14.0371 7.49999 13.6367 7.0993 13.6367 6.60705C13.6367 6.1148 14.0371 5.71441 14.529 5.71441C15.0216 5.71441 15.422 6.11481 15.422 6.60705C15.422 6.95221 15.7015 7.23205 16.047 7.23205C16.3925 7.23205 16.672 6.95221 16.672 6.60705C16.672 5.64452 16.0296 4.83768 15.154 4.56825V4.0625C15.154 3.71734 14.8745 3.4375 14.529 3.4375C14.1836 3.4375 13.904 3.71734 13.904 4.0625V4.56833C13.029 4.83788 12.3867 5.64465 12.3867 6.60706C12.3867 7.7887 13.348 8.75 14.529 8.75C15.0216 8.75 15.422 9.15069 15.422 9.64294C15.422 10.1352 15.0216 10.5356 14.529 10.5356Z" fill="white"/>
</svg>
