<svg width="41" height="40" viewBox="0 0 41 40" fill="none" xmlns="http://www.w3.org/2000/svg">
<path d="M13.7305 29.6048C13.0411 29.6048 12.4805 29.0442 12.4805 28.3548C12.4805 28.0096 12.2007 27.7298 11.8555 27.7298C11.5104 27.7298 11.2305 28.0096 11.2305 28.3548C11.2305 29.5162 12.0303 30.4865 13.1055 30.766V31.4984C13.1055 31.8436 13.3854 32.1234 13.7305 32.1234C14.0757 32.1234 14.3555 31.8436 14.3555 31.4984V30.766C15.4307 30.4865 16.2305 29.5162 16.2305 28.3548C16.2305 26.9763 15.109 25.8548 13.7305 25.8548C13.0411 25.8548 12.4805 25.2942 12.4805 24.6048C12.4805 23.9154 13.0411 23.3548 13.7305 23.3548C14.4199 23.3548 14.9805 23.9154 14.9805 24.6048C14.9805 24.95 15.2604 25.2298 15.6055 25.2298C15.9507 25.2298 16.2305 24.95 16.2305 24.6048C16.2305 23.4434 15.4307 22.4731 14.3555 22.1936V21.4612C14.3555 21.116 14.0757 20.8362 13.7305 20.8362C13.3854 20.8362 13.1055 21.116 13.1055 21.4612V22.1936C12.0303 22.4731 11.2305 23.4434 11.2305 24.6048C11.2305 25.9833 12.352 27.1048 13.7305 27.1048C14.4199 27.1048 14.9805 27.6654 14.9805 28.3548C14.9805 29.0442 14.4199 29.6048 13.7305 29.6048Z" fill="white"/>
<path d="M31.1133 22.3236C28.5282 22.3236 26.2814 22.9365 24.8707 23.8956C23.4398 20.1985 20.8147 17.3881 17.7191 16.0553L20.1565 13.6179C21.1075 12.6669 21.1075 11.1197 20.1565 10.1688C19.2053 9.21784 17.6581 9.21723 16.7074 10.1688L16.3028 10.5731C15.8237 9.63196 14.8486 8.99292 13.7305 8.99292C12.6123 8.99292 11.6373 9.63196 11.1581 10.5731L10.7535 10.1688C9.80251 9.21784 8.25527 9.21723 7.30434 10.1688C6.35342 11.1197 6.35342 12.6669 7.30434 13.6179L9.71008 16.0236C7.77843 16.8424 6.00273 18.2444 4.57149 20.1373C4.36336 20.4126 4.41799 20.8047 4.69325 21.0129C4.96822 21.2207 5.36006 21.1661 5.5688 20.8911C7.70504 18.0655 10.6619 16.445 13.681 16.445C18.0459 16.445 22.1193 19.7958 23.875 24.799C23.5168 25.2594 23.316 25.7634 23.316 26.2964V34.4487C21.689 36.5321 18.6613 37.5005 13.681 37.5C5.95607 37.5 2.66017 35.1239 2.66017 29.5544C2.66017 27.2186 3.25221 24.8715 4.37281 22.7676C4.53486 22.4628 4.4195 22.0843 4.11494 21.922C3.80945 21.7599 3.43134 21.8756 3.26929 22.1799C2.05317 24.4644 1.41016 27.0145 1.41016 29.5544C1.41016 37.7048 7.96778 38.75 13.681 38.75C16.7864 38.75 21.065 38.4362 23.635 35.9439C24.5678 37.6032 27.4722 38.75 31.1133 38.75C35.5582 38.75 38.9102 37.0419 38.9102 34.7772V26.2964C38.9102 24.0686 35.4855 22.3236 31.1133 22.3236ZM11.0189 15.5648L8.18812 12.7341C7.72456 12.2705 7.72456 11.5161 8.18812 11.0526C8.65199 10.5893 9.40638 10.5893 9.86964 11.0526L11.0297 12.2122C11.2045 12.3871 11.4648 12.4423 11.6955 12.3538C11.926 12.2653 12.0828 12.0496 12.0956 11.803C12.1417 10.9283 12.8598 10.2429 13.7305 10.2429C14.6011 10.2429 15.3192 10.9283 15.3653 11.803C15.3781 12.0496 15.535 12.2653 15.7654 12.3538C15.9961 12.4423 16.2564 12.3871 16.4313 12.2122L17.5912 11.0526C18.0551 10.5893 18.8089 10.5893 19.2728 11.0526C19.7363 11.5161 19.7363 12.2705 19.2728 12.7341L16.4239 15.583C15.5326 15.3289 14.6131 15.195 13.681 15.195C12.7817 15.195 11.8895 15.3233 11.0189 15.5648ZM37.6602 26.2964C37.6602 27.5842 34.9716 29.0192 31.1133 29.0192C27.2549 29.0192 24.566 27.5842 24.566 26.2964C24.566 25.0085 27.2549 23.5736 31.1133 23.5736C34.9716 23.5736 37.6602 25.0085 37.6602 26.2964ZM31.1133 37.5C27.2549 37.5 24.566 36.0651 24.566 34.7772V32.7505C25.9315 33.8254 28.3023 34.5096 31.1133 34.5096C31.4584 34.5096 31.7383 34.2297 31.7383 33.8846C31.7383 33.5394 31.4584 33.2596 31.1133 33.2596C27.2549 33.2596 24.566 31.8246 24.566 30.5368V28.51C25.9315 29.585 28.3023 30.2692 31.1133 30.2692C33.9241 30.2692 36.2947 29.585 37.6602 28.51V30.5368C37.6602 31.5704 35.9351 32.6276 33.5583 33.0508C33.2184 33.1113 32.9919 33.4357 33.0527 33.7756C33.1064 34.0784 33.37 34.2911 33.6673 34.2911C33.7036 34.2911 33.7405 34.288 33.7775 34.2813C35.427 33.9876 36.7632 33.4363 37.6602 32.7291V34.7772C37.6602 36.0651 34.9716 37.5 31.1133 37.5Z" fill="white"/>
<path d="M30.6298 16.7032C30.7485 16.8481 30.9261 16.9324 31.1135 16.9324C31.3009 16.9324 31.4785 16.8481 31.5972 16.7032L37.4325 9.57428C37.5854 9.38751 37.6171 9.12903 37.5137 8.91083C37.4102 8.69263 37.1902 8.55347 36.9488 8.55347H34.5416V1.875C34.5416 1.52984 34.2617 1.25 33.9166 1.25H28.3102C27.965 1.25 27.6852 1.52984 27.6852 1.875V8.55347H25.2779C25.0366 8.55347 24.8165 8.69263 24.7131 8.91083C24.6096 9.12903 24.6413 9.38752 24.7942 9.57428L30.6298 16.7032ZM28.3102 9.80347C28.6553 9.80347 28.9352 9.52362 28.9352 9.17847V2.5H33.2915V9.17847C33.2915 9.52362 33.5714 9.80347 33.9165 9.80347H35.6295L31.1135 15.3207L26.5972 9.80347H28.3102Z" fill="white"/>
</svg>
